<svg width="512" height="512" version="1.1" xmlns="http://www.w3.org/2000/svg" desc="Created with imagetracer.js version 1.2.6" ><path fill="rgb(0,0,0)" stroke="rgb(0,0,0)" stroke-width="1" opacity="0" d="M 0 0 L 0.5 0 L 62.5 0 L 63 0.5 Q 49.9 2.9 43 11.5 Q 37.3 17.3 35 26.5 Q 36.5 32 34 33.5 L 34 44.5 L 33 45.5 L 33 68.5 L 32 69.5 L 32 78.5 L 33 79.5 L 33 102.5 L 34 103.5 L 34 113.5 L 35 114.5 L 35 122.5 L 36 123.5 L 36 129.5 L 37 130.5 L 37 135.5 Q 39.3 136.8 38 141.5 L 39 142.5 L 39 146.5 L 40 147.5 Q 39.3 150.8 41 151.5 L 41 155.5 L 42 156.5 L 42 159.5 L 43 160.5 L 43 163.5 Q 44.8 164.3 44 167.5 Q 6.6 227.6 0.5 319 L 0 318.5 L 0 0.5 L 0 0 Z " /><path fill="rgb(0,0,0)" stroke="rgb(0,0,0)" stroke-width="1" opacity="0" d="M 76.5 0 L 435.5 0 L 436 0.5 Q 429 1 424.5 4 L 421.5 4 L 420.5 5 L 418.5 5 L 417.5 6 L 415.5 6 L 414.5 7 L 412.5 7 L 411.5 8 L 409.5 8 L 408.5 9 Q 404.2 8.7 402.5 11 L 400.5 11 Q 396.7 14.2 390.5 15 Q 388.7 17.2 385.5 18 L 383.5 18 Q 345.1 34.6 317.5 62 L 311.5 62 L 310.5 61 L 305.5 61 L 304.5 60 Q 299.8 61.3 298.5 59 L 291.5 59 L 290.5 58 L 281.5 58 L 280.5 57 L 259.5 57 Q 258.3 54.8 253.5 56 L 252.5 57 L 231.5 57 L 230.5 58 L 221.5 58 L 220.5 59 L 214.5 59 Q 213 61.5 207.5 60 L 206.5 61 Q 201.8 59.7 200.5 62 L 194.5 62 Q 175.6 42.4 150.5 29 Q 132.2 18.8 111.5 11 L 109.5 11 L 108.5 10 L 106.5 10 L 105.5 9 L 103.5 9 L 102.5 8 L 100.5 8 L 99.5 7 L 97.5 7 L 96.5 6 Q 92.2 6.3 90.5 4 L 87.5 4 Q 83.5 1 76.5 1 Q 75.5 0.5 76.5 0 Z " /><path fill="rgb(0,0,0)" stroke="rgb(0,0,0)" stroke-width="1" opacity="0" d="M 449.5 0 L 511.5 0 Q 512.3 -0.3 512 0.5 L 512 318.5 Q 511.5 319.5 511 318.5 L 511 307.5 L 510 306.5 L 510 297.5 Q 507.3 295.8 509 289.5 L 508 288.5 Q 509.2 283.8 507 282.5 L 507 276.5 L 506 275.5 L 506 271.5 L 505 270.5 L 505 266.5 L 504 265.5 L 504 261.5 L 503 260.5 L 503 256.5 L 502 255.5 L 502 252.5 L 501 251.5 L 501 248.5 L 500 247.5 L 500 244.5 Q 498.2 243.8 499 240.5 Q 497.2 239.2 497 236.5 L 497 233.5 Q 493.7 228.3 493 220.5 L 491 217.5 L 491 215.5 Q 490 210 487 206.5 L 487 204.5 L 485 201.5 L 485 199.5 Q 478 182 468 167.5 L 468 163.5 Q 469.7 162.2 470 159.5 Q 470.1 151.6 473 146.5 Q 472 142.5 474 141.5 L 474 136.5 L 475 135.5 L 475 130.5 L 476 129.5 L 476 123.5 L 477 122.5 L 477 114.5 L 478 113.5 L 478 103.5 L 479 102.5 L 479 78.5 Q 481.3 77.3 480 72.5 L 479 71.5 L 479 45.5 L 478 44.5 L 478 33.5 Q 475.5 32 477 26.5 Q 473.5 15 465.5 8 Q 460.2 1.8 449.5 1 Q 448.5 0.5 449.5 0 Z " /><path fill="rgb(0,0,0)" stroke="rgb(0,0,0)" stroke-width="1" opacity="0" d="M 511.5 348 L 512 348.5 L 512 511.5 L 512 512 L 511.5 512 L 278.5 512 L 278 511.5 L 278.5 511 L 290.5 511 L 291.5 510 L 299.5 510 L 300.5 509 L 306.5 509 L 307.5 508 L 312.5 508 L 313.5 507 L 318.5 507 L 319.5 506 L 323.5 506 Q 324.5 504 328.5 505 Q 358.4 498.4 383.5 487 Q 436.1 463.6 472 423.5 Q 488.2 405.7 500 383.5 Q 501.5 377 505 372.5 L 505 370.5 L 507 367.5 Q 506.7 364.2 508 362.5 L 509 361.5 L 509 358.5 Q 511.6 354.6 511.5 348 Z " /><path fill="rgb(0,0,0)" stroke="rgb(0,0,0)" stroke-width="1" opacity="0" d="M 0.5 349 Q 2 350 1 353.5 L 2 354.5 L 2 357.5 L 3 358.5 L 3 361.5 Q 5.3 363.2 5 367.5 Q 10 381 17 392.5 Q 34.3 420.7 58.5 442 Q 93.2 473.3 140.5 492 Q 143.7 491.7 145.5 493 L 148.5 495 L 150.5 495 L 151.5 496 Q 155.8 495.7 157.5 498 L 160.5 498 L 161.5 499 Q 165.8 498.7 167.5 501 L 170.5 501 L 171.5 502 L 174.5 502 L 175.5 503 L 178.5 503 L 179.5 504 Q 182.8 503.3 183.5 505 L 187.5 505 L 188.5 506 Q 192.5 505 193.5 507 L 198.5 507 L 199.5 508 L 204.5 508 L 205.5 509 L 211.5 509 L 212.5 510 L 220.5 510 L 221.5 511 L 233.5 511 L 234 511.5 L 233.5 512 L 0.5 512 L 0 512 L 0 511.5 L 0 349.5 L 0.5 349 Z " /><path fill="rgb(0,0,0)" stroke="rgb(0,0,0)" stroke-width="1" opacity="0.9411764705882353" d="M 66.5 0 Q 71.5 -1.5 73 0.5 Q 71.5 2.5 66.5 1 Q 65.5 0.5 66.5 0 Z " /><path fill="rgb(0,0,0)" stroke="rgb(0,0,0)" stroke-width="1" opacity="0.9411764705882353" d="M 439.5 0 Q 444.5 -1.5 446 0.5 Q 444.5 2.5 439.5 1 Q 438.5 0.5 439.5 0 Z " /><path fill="rgb(0,0,0)" stroke="rgb(0,0,0)" stroke-width="1" opacity="0.9411764705882353" d="M 42.5 13 Q 44 14 41.5 15 Q 40 14 42.5 13 Z " /><path fill="rgb(0,0,0)" stroke="rgb(0,0,0)" stroke-width="1" opacity="0.9411764705882353" d="M 469.5 13 Q 472 14 470.5 15 Q 468 14 469.5 13 Z " /><path fill="rgb(0,0,0)" stroke="rgb(0,0,0)" stroke-width="1" opacity="0.9411764705882353" d="M 34.5 38 Q 35.5 38.5 35 40.5 Q 34.5 41.5 34 40.5 Q 33.5 38.5 34.5 38 Z " /><path fill="rgb(0,0,0)" stroke="rgb(0,0,0)" stroke-width="1" opacity="0.9411764705882353" d="M 477.5 38 Q 478.5 38.5 478 40.5 Q 477.5 41.5 477 40.5 Q 476.5 38.5 477.5 38 Z " /><path fill="rgb(0,0,0)" stroke="rgb(0,0,0)" stroke-width="1" opacity="0.9411764705882353" d="M 170.5 42 Q 173 43 171.5 44 Q 169 43 170.5 42 Z " /><path fill="rgb(0,0,0)" stroke="rgb(0,0,0)" stroke-width="1" opacity="0.9411764705882353" d="M 182.5 51 Q 186.5 52.5 184.5 54 Q 180.5 52.5 182.5 51 Z " /><path fill="rgb(0,0,0)" stroke="rgb(0,0,0)" stroke-width="1" opacity="0.9411764705882353" d="M 329.5 51 Q 331.5 52.5 327.5 54 Q 325.5 52.5 329.5 51 Z " /><path fill="rgb(0,0,0)" stroke="rgb(0,0,0)" stroke-width="1" opacity="0.9411764705882353" d="M 33.5 54 Q 34.5 54.5 34 56.5 Q 33.5 57.5 33 56.5 Q 32.5 54.5 33.5 54 Z " /><path fill="rgb(0,0,0)" stroke="rgb(0,0,0)" stroke-width="1" opacity="0.9411764705882353" d="M 478.5 54 Q 479.8 54.8 479 57.5 Q 478.5 58.5 478 57.5 Q 477.3 54.8 478.5 54 Z " /><path fill="rgb(0,0,0)" stroke="rgb(0,0,0)" stroke-width="1" opacity="0.9411764705882353" d="M 189.5 57 L 194 61.5 L 193.5 62 L 189 57.5 L 189.5 57 Z " /><path fill="rgb(0,0,0)" stroke="rgb(0,0,0)" stroke-width="1" opacity="0.9411764705882353" d="M 238.5 57 Q 240.5 56.5 241 57.5 Q 240.5 58.5 238.5 58 Q 237.5 57.5 238.5 57 Z " /><path fill="rgb(0,0,0)" stroke="rgb(0,0,0)" stroke-width="1" opacity="0.9411764705882353" d="M 271.5 57 Q 273.5 56.5 274 57.5 Q 273.5 58.5 271.5 58 Q 270.5 57.5 271.5 57 Z " /><path fill="rgb(0,0,0)" stroke="rgb(0,0,0)" stroke-width="1" opacity="0.9411764705882353" d="M 322.5 57 L 323 57.5 L 318.5 62 L 318 61.5 L 322.5 57 Z " /><path fill="rgb(0,0,0)" stroke="rgb(0,0,0)" stroke-width="1" opacity="0.9411764705882353" d="M 33.5 92 Q 34.8 92.8 34 95.5 Q 33.5 96.5 33 95.5 Q 32.3 92.8 33.5 92 Z " /><path fill="rgb(0,0,0)" stroke="rgb(0,0,0)" stroke-width="1" opacity="0.9411764705882353" d="M 478.5 92 Q 479.8 92.8 479 95.5 Q 478.5 96.5 478 95.5 Q 477.3 92.8 478.5 92 Z " /><path fill="rgb(0,0,0)" stroke="rgb(0,0,0)" stroke-width="1" opacity="0.9411764705882353" d="M 34.5 107 Q 35.5 107.5 35 109.5 Q 34.5 110.5 34 109.5 Q 33.5 107.5 34.5 107 Z " /><path fill="rgb(0,0,0)" stroke="rgb(0,0,0)" stroke-width="1" opacity="0.9411764705882353" d="M 477.5 107 Q 478.5 107.5 478 109.5 Q 477.5 110.5 477 109.5 Q 476.5 107.5 477.5 107 Z " /><path fill="rgb(0,0,0)" stroke="rgb(0,0,0)" stroke-width="1" opacity="0.9411764705882353" d="M 0.5 329 L 1 329.5 L 1 337.5 Q 0.5 338.5 0 337.5 L 0 329.5 L 0.5 329 Z " /><path fill="rgb(0,0,0)" stroke="rgb(0,0,0)" stroke-width="1" opacity="0.9411764705882353" d="M 511.5 329 L 512 329.5 L 512 337.5 Q 511.5 338.5 511 337.5 L 511 329.5 L 511.5 329 Z " /><path fill="rgb(0,0,0)" stroke="rgb(0,0,0)" stroke-width="1" opacity="0.9411764705882353" d="M 0.5 341 Q 1.8 341.8 1 344.5 Q 0.5 345.5 0 344.5 Q -0.8 341.8 0.5 341 Z " /><path fill="rgb(0,0,0)" stroke="rgb(0,0,0)" stroke-width="1" opacity="0.9411764705882353" d="M 511.5 341 Q 512.8 341.8 512 344.5 Q 511.5 345.5 511 344.5 Q 510.3 341.8 511.5 341 Z " /><path fill="rgb(0,0,0)" stroke="rgb(0,0,0)" stroke-width="1" opacity="0.9411764705882353" d="M 26.5 405 Q 29 406 27.5 407 Q 25 406 26.5 405 Z " /><path fill="rgb(0,0,0)" stroke="rgb(0,0,0)" stroke-width="1" opacity="0.9411764705882353" d="M 485.5 405 Q 487 406 484.5 407 Q 483 406 485.5 405 Z " /><path fill="rgb(0,0,0)" stroke="rgb(0,0,0)" stroke-width="1" opacity="0.9411764705882353" d="M 29.5 409 Q 32 410 30.5 411 Q 28 410 29.5 409 Z " /><path fill="rgb(0,0,0)" stroke="rgb(0,0,0)" stroke-width="1" opacity="0.9411764705882353" d="M 482.5 409 Q 484 410 481.5 411 Q 480 410 482.5 409 Z " /><path fill="rgb(0,0,0)" stroke="rgb(0,0,0)" stroke-width="1" opacity="0.9411764705882353" d="M 33.5 414 Q 36 415 34.5 416 Q 32 415 33.5 414 Z " /><path fill="rgb(0,0,0)" stroke="rgb(0,0,0)" stroke-width="1" opacity="0.9411764705882353" d="M 478.5 414 Q 480 415 477.5 416 Q 476 415 478.5 414 Z " /><path fill="rgb(0,0,0)" stroke="rgb(0,0,0)" stroke-width="1" opacity="0.9411764705882353" d="M 37.5 419 Q 41.5 420.5 39.5 422 Q 35.5 420.5 37.5 419 Z " /><path fill="rgb(0,0,0)" stroke="rgb(0,0,0)" stroke-width="1" opacity="0.9411764705882353" d="M 474.5 419 Q 476.5 420.5 472.5 422 L 472 421.5 L 474.5 419 Z " /><path fill="rgb(0,0,0)" stroke="rgb(0,0,0)" stroke-width="1" opacity="0.9411764705882353" d="M 48.5 431 Q 52.5 432.5 50.5 434 Q 46.5 432.5 48.5 431 Z " /><path fill="rgb(0,0,0)" stroke="rgb(0,0,0)" stroke-width="1" opacity="0.9411764705882353" d="M 463.5 431 Q 465.5 432.5 461.5 434 L 461 433.5 L 463.5 431 Z " /><path fill="rgb(0,0,0)" stroke="rgb(0,0,0)" stroke-width="1" opacity="0.9411764705882353" d="M 59.5 441 L 63 444.5 L 62.5 445 L 59 441.5 L 59.5 441 Z " /><path fill="rgb(0,0,0)" stroke="rgb(0,0,0)" stroke-width="1" opacity="0.9411764705882353" d="M 451.5 442 Q 453.5 443.5 449.5 445 L 449 444.5 L 451.5 442 Z " /><path fill="rgb(0,0,0)" stroke="rgb(0,0,0)" stroke-width="1" opacity="0.9411764705882353" d="M 67.5 448 Q 70 449 68.5 450 Q 66 449 67.5 448 Z " /><path fill="rgb(0,0,0)" stroke="rgb(0,0,0)" stroke-width="1" opacity="0.9411764705882353" d="M 444.5 448 Q 446 449 443.5 450 Q 442 449 444.5 448 Z " /><path fill="rgb(0,0,0)" stroke="rgb(0,0,0)" stroke-width="1" opacity="0.9411764705882353" d="M 72.5 452 Q 75 453 73.5 454 Q 71 453 72.5 452 Z " /><path fill="rgb(0,0,0)" stroke="rgb(0,0,0)" stroke-width="1" opacity="0.9411764705882353" d="M 439.5 452 Q 441 453 438.5 454 Q 437 453 439.5 452 Z " /><path fill="rgb(0,0,0)" stroke="rgb(0,0,0)" stroke-width="1" opacity="0.9411764705882353" d="M 76.5 455 Q 79 456 77.5 457 Q 75 456 76.5 455 Z " /><path fill="rgb(0,0,0)" stroke="rgb(0,0,0)" stroke-width="1" opacity="0.9411764705882353" d="M 435.5 455 Q 437 456 434.5 457 Q 433 456 435.5 455 Z " /><path fill="rgb(0,0,0)" stroke="rgb(0,0,0)" stroke-width="1" opacity="0.9411764705882353" d="M 244.5 511 L 252.5 511 L 253 511.5 L 252.5 512 L 244.5 512 Q 243.5 511.5 244.5 511 Z " /><path fill="rgb(0,0,0)" stroke="rgb(0,0,0)" stroke-width="1" opacity="0.9411764705882353" d="M 259.5 511 L 267.5 511 L 268 511.5 L 267.5 512 L 259.5 512 Q 258.5 511.5 259.5 511 Z " /><path fill="rgb(221,111,99)" stroke="rgb(221,111,99)" stroke-width="1" opacity="1" d="M 453.5 25 Q 456 26 454.5 27 Q 452 26 453.5 25 Z " /><path fill="rgb(221,111,99)" stroke="rgb(221,111,99)" stroke-width="1" opacity="1" d="M 457.5 39 Q 458.8 39.8 458 42.5 Q 457.5 43.5 457 42.5 Q 456.3 39.8 457.5 39 Z " /><path fill="rgb(221,111,99)" stroke="rgb(221,111,99)" stroke-width="1" opacity="1" d="M 411.5 57 L 412 57.5 L 408.5 61 L 408 60.5 L 411.5 57 Z " /><path fill="rgb(221,111,99)" stroke="rgb(221,111,99)" stroke-width="1" opacity="1" d="M 101.5 58 L 105 61.5 L 104.5 62 L 101 58.5 L 101.5 58 Z " /><path fill="rgb(221,111,99)" stroke="rgb(221,111,99)" stroke-width="1" opacity="1" d="M 170.5 67 Q 173 68 171.5 69 Q 169 68 170.5 67 Z " /><path fill="rgb(221,111,99)" stroke="rgb(221,111,99)" stroke-width="1" opacity="1" d="M 341.5 67 Q 343 68 340.5 69 Q 339 68 341.5 67 Z " /><path fill="rgb(221,111,99)" stroke="rgb(221,111,99)" stroke-width="1" opacity="1" d="M 426.5 71 Q 428 72 425.5 73 Q 424 72 426.5 71 Z " /><path fill="rgb(221,111,99)" stroke="rgb(221,111,99)" stroke-width="1" opacity="1" d="M 177.5 73 Q 180 74 178.5 75 Q 176 74 177.5 73 Z " /><path fill="rgb(221,111,99)" stroke="rgb(221,111,99)" stroke-width="1" opacity="1" d="M 178.5 76 Q 180 77 177.5 78 Q 176 77 178.5 76 Z " /><path fill="rgb(221,111,99)" stroke="rgb(221,111,99)" stroke-width="1" opacity="1" d="M 333.5 76 Q 336 77 334.5 78 Q 332 77 333.5 76 Z " /><path fill="rgb(221,111,99)" stroke="rgb(221,111,99)" stroke-width="1" opacity="1" d="M 238.5 77 Q 240.5 76.5 241 77.5 Q 240.5 78.5 238.5 78 Q 237.5 77.5 238.5 77 Z " /><path fill="rgb(221,111,99)" stroke="rgb(221,111,99)" stroke-width="1" opacity="1" d="M 271.5 77 Q 273.5 76.5 274 77.5 Q 273.5 78.5 271.5 78 Q 270.5 77.5 271.5 77 Z " /><path fill="rgb(221,111,99)" stroke="rgb(221,111,99)" stroke-width="1" opacity="1" d="M 124.5 81 L 135 91.5 L 134.5 92 L 124 81.5 L 124.5 81 Z " /><path fill="rgb(221,111,99)" stroke="rgb(221,111,99)" stroke-width="1" opacity="1" d="M 172.5 82 Q 174 83 171.5 84 Q 170 83 172.5 82 Z " /><path fill="rgb(221,111,99)" stroke="rgb(221,111,99)" stroke-width="1" opacity="1" d="M 339.5 82 Q 342 83 340.5 84 Q 338 83 339.5 82 Z " /><path fill="rgb(221,111,99)" stroke="rgb(221,111,99)" stroke-width="1" opacity="1" d="M 386.5 82 L 387 82.5 L 377.5 92 L 377 91.5 L 386.5 82 Z " /><path fill="rgb(221,111,99)" stroke="rgb(221,111,99)" stroke-width="1" opacity="1" d="M 195.5 88 Q 197 89 194.5 90 Q 193 89 195.5 88 Z " /><path fill="rgb(221,111,99)" stroke="rgb(221,111,99)" stroke-width="1" opacity="1" d="M 317.5 89 Q 320 90 318.5 91 Q 316 90 317.5 89 Z " /><path fill="rgb(221,111,99)" stroke="rgb(221,111,99)" stroke-width="1" opacity="1" d="M 144.5 95 Q 147.3 94.3 148 95.5 Q 147.3 96.8 144.5 96 Q 143.5 95.5 144.5 95 Z " /><path fill="rgb(221,111,99)" stroke="rgb(221,111,99)" stroke-width="1" opacity="1" d="M 364.5 95 Q 367.3 94.3 368 95.5 Q 367.3 96.8 364.5 96 Q 363.5 95.5 364.5 95 Z " /><path fill="rgb(221,111,99)" stroke="rgb(221,111,99)" stroke-width="1" opacity="1" d="M 325.5 97 Q 328 98 326.5 99 Q 324 98 325.5 97 Z " /><path fill="rgb(221,111,99)" stroke="rgb(221,111,99)" stroke-width="1" opacity="1" d="M 185.5 98 Q 187 99 184.5 100 Q 183 99 185.5 98 Z " /><path fill="rgb(221,111,99)" stroke="rgb(221,111,99)" stroke-width="1" opacity="1" d="M 394.5 103 Q 396 104 393.5 105 Q 392 104 394.5 103 Z " /><path fill="rgb(221,111,99)" stroke="rgb(221,111,99)" stroke-width="1" opacity="1" d="M 420.5 142 Q 421.5 142.5 421 144.5 Q 420.5 145.5 420 144.5 Q 419.5 142.5 420.5 142 Z " /><path fill="rgb(221,111,99)" stroke="rgb(221,111,99)" stroke-width="1" opacity="1" d="M 86.5 152 Q 88 153 85.5 154 Q 84 153 86.5 152 Z " /><path fill="rgb(221,111,99)" stroke="rgb(221,111,99)" stroke-width="1" opacity="1" d="M 430.5 156 Q 433 157 431.5 158 Q 429 157 430.5 156 Z " /><path fill="rgb(221,111,99)" stroke="rgb(221,111,99)" stroke-width="1" opacity="1" d="M 80.5 157 Q 82.5 158.5 78.5 160 L 78 159.5 L 80.5 157 Z " /><path fill="rgb(221,111,99)" stroke="rgb(221,111,99)" stroke-width="1" opacity="1" d="M 67.5 170 Q 69.5 171.5 65.5 173 Q 63.5 171.5 67.5 170 Z " /><path fill="rgb(221,111,99)" stroke="rgb(221,111,99)" stroke-width="1" opacity="1" d="M 446.5 172 Q 449 173 447.5 174 Q 445 173 446.5 172 Z " /><path fill="rgb(221,111,99)" stroke="rgb(221,111,99)" stroke-width="1" opacity="1" d="M 142.5 230 Q 144 231 141.5 232 Q 140 231 142.5 230 Z " /><path fill="rgb(221,111,99)" stroke="rgb(221,111,99)" stroke-width="1" opacity="1" d="M 174.5 230 Q 177 231 175.5 232 Q 173 231 174.5 230 Z " /><path fill="rgb(221,111,99)" stroke="rgb(221,111,99)" stroke-width="1" opacity="1" d="M 138.5 234 Q 140 235 137.5 236 Q 136 235 138.5 234 Z " /><path fill="rgb(221,111,99)" stroke="rgb(221,111,99)" stroke-width="1" opacity="1" d="M 178.5 234 Q 181 235 179.5 236 Q 177 235 178.5 234 Z " /><path fill="rgb(221,111,99)" stroke="rgb(221,111,99)" stroke-width="1" opacity="1" d="M 381.5 249 Q 383 250 382 253.5 Q 381.5 254.5 381 253.5 Q 380 250 381.5 249 Z " /><path fill="rgb(221,111,99)" stroke="rgb(221,111,99)" stroke-width="1" opacity="1" d="M 375.5 268 L 376 268.5 L 372.5 272 L 372 271.5 L 375.5 268 Z " /><path fill="rgb(221,111,99)" stroke="rgb(221,111,99)" stroke-width="1" opacity="1" d="M 335.5 269 Q 339.5 270.5 337.5 272 Q 333.5 270.5 335.5 269 Z " /><path fill="rgb(221,111,99)" stroke="rgb(221,111,99)" stroke-width="1" opacity="1" d="M 142.5 272 Q 145 273 143.5 274 Q 141 273 142.5 272 Z " /><path fill="rgb(221,111,99)" stroke="rgb(221,111,99)" stroke-width="1" opacity="1" d="M 217.5 302 Q 219.5 303.5 215.5 305 L 215 304.5 L 217.5 302 Z " /><path fill="rgb(221,111,99)" stroke="rgb(221,111,99)" stroke-width="1" opacity="1" d="M 212.5 307 Q 214 308 211.5 309 Q 210 308 212.5 307 Z " /><path fill="rgb(221,111,99)" stroke="rgb(221,111,99)" stroke-width="1" opacity="1" d="M 490.5 311 Q 491.5 311.5 491 313.5 Q 490.5 314.5 490 313.5 Q 489.5 311.5 490.5 311 Z " /><path fill="rgb(221,111,99)" stroke="rgb(221,111,99)" stroke-width="1" opacity="1" d="M 21.5 312 Q 22.5 312.5 22 314.5 Q 21.5 315.5 21 314.5 Q 20.5 312.5 21.5 312 Z " /><path fill="rgb(221,111,99)" stroke="rgb(221,111,99)" stroke-width="1" opacity="1" d="M 491.5 326 Q 493 327 492 330.5 Q 491.5 331.5 491 330.5 Q 490 327 491.5 326 Z " /><path fill="rgb(221,111,99)" stroke="rgb(221,111,99)" stroke-width="1" opacity="1" d="M 20.5 328 L 21 328.5 L 21 337.5 Q 20.5 338.5 20 337.5 L 20 328.5 L 20.5 328 Z " /><path fill="rgb(221,111,99)" stroke="rgb(221,111,99)" stroke-width="1" opacity="1" d="M 20.5 340 Q 21.8 340.8 21 343.5 Q 20.5 344.5 20 343.5 Q 19.3 340.8 20.5 340 Z " /><path fill="rgb(221,111,99)" stroke="rgb(221,111,99)" stroke-width="1" opacity="1" d="M 491.5 342 Q 492.5 342.5 492 344.5 Q 491.5 345.5 491 344.5 Q 490.5 342.5 491.5 342 Z " /><path fill="rgb(221,111,99)" stroke="rgb(221,111,99)" stroke-width="1" opacity="1" d="M 295.5 355 Q 297.5 356.5 293.5 358 L 293 357.5 L 295.5 355 Z " /><path fill="rgb(221,111,99)" stroke="rgb(221,111,99)" stroke-width="1" opacity="1" d="M 178.5 408 Q 181 409 179.5 410 Q 177 409 178.5 408 Z " /><path fill="rgb(221,111,99)" stroke="rgb(221,111,99)" stroke-width="1" opacity="1" d="M 250.5 417 L 261.5 417 Q 262.5 419 266.5 418 Q 280.9 422.1 291 430.5 Q 285.6 431.6 282.5 435 Q 280.4 436.4 276.5 436 L 275.5 437 L 272.5 437 L 271.5 438 Q 266 436.5 264.5 439 L 248.5 439 L 247.5 438 Q 240.8 438.7 236.5 437 L 235.5 436 L 233.5 436 Q 231.8 433.7 227.5 434 Q 224 433 222 430.5 Q 232.9 420.4 250.5 417 Z " /><path fill="rgb(221,111,99)" stroke="rgb(221,111,99)" stroke-width="1" opacity="1" d="M 239.5 491 Q 242.3 490.3 243 491.5 Q 242.3 492.8 239.5 492 Q 238.5 491.5 239.5 491 Z " /><path fill="rgb(221,111,99)" stroke="rgb(221,111,99)" stroke-width="1" opacity="1" d="M 269.5 491 Q 272.3 490.3 273 491.5 Q 272.3 492.8 269.5 492 Q 268.5 491.5 269.5 491 Z " /><path fill="rgb(0,0,0)" stroke="rgb(0,0,0)" stroke-width="1" opacity="1" d="M 61.5 1 L 76.5 1 L 77.5 2 L 80.5 2 Q 81.3 3.7 84.5 3 Q 110.7 10.3 133.5 21 Q 148 27 159.5 36 Q 161.7 35.8 162.5 37 Q 179.9 47.6 193.5 62 Q 195 63.5 198.5 63 L 199.5 62 L 204.5 62 L 205.5 61 Q 210.3 62.3 211.5 60 L 217.5 60 L 218.5 59 L 226.5 59 L 227.5 58 L 240.5 58 L 241.5 57 L 270.5 57 L 271.5 58 L 284.5 58 L 285.5 59 L 293.5 59 L 294.5 60 L 300.5 60 L 301.5 61 L 306.5 61 L 307.5 62 L 312.5 62 Q 313.3 63.7 316.5 63 Q 342.9 37.4 378.5 21 Q 401.3 10.3 427.5 3 L 430.5 3 L 431.5 2 Q 434.7 2.7 435.5 1 L 450.5 1 Q 462.4 4.1 469 12.5 L 469 13.5 Q 473.2 16.8 475 22.5 Q 476.5 25 476 29.5 L 477 30.5 L 477 40.5 L 478 41.5 L 478 57.5 L 479 58.5 L 479 91.5 L 478 92.5 L 478 106.5 L 477 107.5 L 477 116.5 L 476 117.5 L 476 124.5 Q 473.5 126 475 131.5 L 474 132.5 L 474 137.5 L 473 138.5 L 473 142.5 L 472 143.5 L 472 147.5 Q 470 148.5 471 152.5 L 470 153.5 L 470 156.5 L 469 157.5 L 469 160.5 L 468 161.5 Q 468.4 165.4 467 167.5 Q 476.5 180.5 483 196.5 Q 491.7 216.8 498 239.5 L 498 242.5 L 499 243.5 L 499 246.5 L 500 247.5 L 500 250.5 L 501 251.5 Q 500.3 254.8 502 255.5 L 502 258.5 L 503 259.5 L 503 263.5 L 504 264.5 Q 503 268.5 505 269.5 L 505 274.5 L 506 275.5 L 506 280.5 L 507 281.5 L 507 286.5 L 508 287.5 L 508 294.5 L 509 295.5 Q 507.3 301.8 510 303.5 L 510 313.5 L 511 314.5 L 511 337.5 Q 512.5 338 512 340.5 L 511 341.5 L 511 350.5 L 510 351.5 L 510 355.5 Q 507.5 357.5 508 362.5 Q 503.1 377.1 496 389.5 Q 477.9 419.4 452.5 442 Q 414.5 476 361.5 495 Q 352.3 496.3 345.5 500 L 342.5 500 L 341.5 501 L 338.5 501 L 337.5 502 L 334.5 502 Q 333.8 503.7 330.5 503 L 329.5 504 L 325.5 504 L 324.5 505 Q 321.3 504.2 320.5 506 L 315.5 506 L 314.5 507 L 309.5 507 L 308.5 508 Q 303 506.5 301.5 509 L 294.5 509 L 293.5 510 L 283.5 510 L 282.5 511 L 259.5 511 Q 258.3 513.3 253.5 512 L 252.5 511 L 229.5 511 L 228.5 510 L 218.5 510 L 217.5 509 L 210.5 509 L 209.5 508 L 203.5 508 L 202.5 507 L 197.5 507 Q 196.3 504.8 191.5 506 L 190.5 505 Q 187.3 505.8 186.5 504 L 182.5 504 L 181.5 503 L 178.5 503 L 177.5 502 L 174.5 502 L 173.5 501 L 170.5 501 Q 169.8 499.3 166.5 500 L 165.5 499 Q 161.2 499.3 159.5 497 L 156.5 497 Q 151 496 147.5 493 Q 144.2 493.2 142.5 492 L 139.5 490 L 137.5 490 L 134.5 488 L 132.5 488 Q 77.2 464.3 40 422.5 Q 21.2 402.3 9 375.5 L 9 373.5 Q 6.8 371.7 6 368.5 Q 6.3 364.2 4 362.5 L 4 359.5 Q 2.2 358.2 2 355.5 Q 3 351.5 1 350.5 L 1 341.5 Q -0.5 341 0 338.5 L 1 337.5 L 1 314.5 L 2 313.5 L 2 303.5 L 3 302.5 L 3 295.5 Q 5.8 293.8 4 287.5 L 5 286.5 L 5 281.5 L 6 280.5 L 6 275.5 L 7 274.5 L 7 269.5 L 8 268.5 L 8 264.5 Q 10 263.5 9 259.5 L 10 258.5 L 10 255.5 L 11 254.5 L 11 251.5 L 12 250.5 L 12 247.5 L 13 246.5 L 13 243.5 Q 14.8 242.8 14 239.5 Q 20.3 216.8 29 196.5 Q 34.7 187.2 39 176.5 Q 42.2 173.7 44 169.5 Q 45.3 168.3 45 165.5 L 44 164.5 L 44 161.5 L 43 160.5 L 43 157.5 L 42 156.5 Q 42.8 153.3 41 152.5 L 41 148.5 L 40 147.5 L 40 143.5 L 39 142.5 Q 40 138.5 38 137.5 L 38 132.5 L 37 131.5 Q 38.5 126 36 124.5 L 36 117.5 L 35 116.5 L 35 107.5 L 34 106.5 L 34 92.5 L 33 91.5 L 33 57.5 L 34 56.5 L 34 41.5 L 35 40.5 L 35 30.5 Q 37 29.5 36 25.5 Q 39.4 14.4 47.5 8 Q 53.2 3.2 61.5 1 Z M 66 20 Q 65 22 62 22 Q 57 25 55 30 Q 53 35 54 43 Q 56 41 63 42 L 64 41 Q 65 41 66 42 Q 72 41 77 43 Q 86 46 94 52 L 99 57 L 100 57 L 137 94 Q 140 94 142 96 L 150 96 Q 153 95 156 93 L 158 93 Q 168 88 176 81 Q 177 78 180 76 Q 157 53 127 39 Q 107 30 85 23 Q 78 23 74 20 L 66 20 Z M 439 20 Q 436 20 435 22 Q 431 21 431 23 L 428 23 Q 426 25 422 25 L 421 26 L 419 26 L 418 27 L 416 27 L 415 28 L 413 28 L 412 29 L 410 29 L 407 31 Q 405 32 402 32 Q 398 33 397 35 L 395 35 Q 387 40 378 43 Q 352 56 332 76 Q 336 77 335 80 L 337 80 Q 342 87 351 91 Q 356 92 360 95 L 362 95 L 363 96 Q 371 97 376 94 L 413 57 L 414 57 Q 418 52 425 48 Q 431 47 436 43 Q 440 41 447 42 L 448 41 L 449 42 Q 455 41 458 43 Q 458 41 458 35 L 457 34 Q 458 29 456 28 Q 453 22 447 20 L 439 20 Z M 62 61 Q 56 62 53 67 L 53 101 L 54 102 L 54 113 L 55 114 L 55 121 Q 58 122 56 128 L 57 129 L 57 134 L 58 135 L 58 140 L 59 141 Q 59 146 60 148 L 62 148 Q 69 140 79 134 Q 84 133 87 135 Q 90 137 91 141 Q 92 146 90 149 Q 83 154 77 161 L 76 161 Q 66 169 59 181 Q 48 199 40 222 Q 40 226 38 228 L 38 230 L 37 231 L 37 233 L 36 234 L 36 236 L 35 237 L 35 240 Q 35 242 33 244 Q 34 247 32 248 L 32 251 L 31 252 L 31 255 L 30 256 L 30 259 L 29 260 L 29 263 L 28 264 Q 29 267 27 269 L 27 273 L 26 274 L 26 278 L 25 279 L 25 284 L 24 285 Q 26 290 23 292 L 23 298 L 22 299 L 22 307 L 21 308 L 21 319 L 20 320 L 20 347 L 21 348 L 21 352 Q 23 352 22 356 Q 25 360 26 367 Q 38 393 57 413 Q 88 445 131 466 L 133 466 Q 138 470 146 472 L 147 473 Q 153 473 158 477 L 161 477 Q 162 479 167 479 L 168 480 L 170 480 L 171 481 L 173 481 L 174 482 Q 177 481 178 483 L 181 483 L 182 484 L 186 484 Q 186 486 190 485 L 191 486 L 195 486 L 196 487 L 200 487 L 201 488 L 206 488 L 207 489 Q 212 488 214 490 L 222 490 L 223 491 L 233 491 L 234 492 L 279 492 L 280 491 L 290 491 L 291 490 L 299 490 L 300 489 L 306 489 L 307 488 L 312 488 Q 313 486 317 487 L 318 486 L 322 486 L 323 485 L 327 485 Q 327 483 331 484 L 332 483 L 335 483 L 336 482 L 339 482 Q 340 480 345 480 L 346 479 L 349 479 Q 404 461 442 426 Q 462 407 477 384 Q 487 368 492 348 L 492 319 L 491 318 L 491 307 L 490 306 Q 492 299 489 298 L 489 291 L 488 290 L 488 285 L 487 284 L 487 279 Q 485 278 486 274 L 485 273 L 485 268 Q 483 267 484 264 L 483 263 L 483 259 L 482 258 Q 483 254 481 254 L 481 251 L 480 250 L 480 247 Q 474 224 465 204 Q 457 185 445 170 Q 437 160 427 153 Q 423 151 421 147 Q 420 141 422 139 Q 424 135 428 134 Q 435 133 438 136 Q 445 141 451 148 L 452 148 Q 455 141 455 130 L 456 129 L 456 123 L 457 122 Q 455 115 458 114 L 458 105 L 459 104 L 459 86 L 460 85 L 460 69 Q 459 68 459 67 Q 456 62 451 61 L 444 61 L 443 62 L 441 62 Q 437 65 433 66 Q 432 69 429 69 L 390 108 L 389 108 Q 385 112 379 114 Q 376 116 371 115 L 370 116 L 364 116 Q 362 114 358 115 Q 354 114 352 112 L 350 112 Q 337 107 328 99 Q 319 94 315 85 L 313 82 Q 309 83 309 81 L 305 81 L 304 80 Q 298 82 297 79 L 291 79 L 290 78 L 281 78 L 280 77 L 261 77 L 260 76 Q 253 74 252 77 L 233 77 L 232 78 L 223 78 L 222 79 L 216 79 L 215 80 L 210 80 L 209 81 L 204 81 Q 203 83 200 82 Q 198 85 196 87 L 196 88 Q 179 109 149 116 Q 132 116 123 108 L 109 95 L 109 94 Q 96 80 83 68 L 82 68 Q 78 64 72 62 L 70 62 L 69 61 L 62 61 Z " /><path fill="rgb(0,0,0)" stroke="rgb(0,0,0)" stroke-width="1" opacity="1" d="M 152.5 226 Q 173.3 224.2 180 236.5 Q 185.8 243.2 184 257.5 Q 181.3 267.8 173.5 273 L 172.5 273 Q 170.2 276.2 165.5 277 Q 160 276 157.5 278 L 156.5 277 Q 149.8 277.7 146.5 275 Q 140.8 271.7 137 266.5 Q 130.8 260.2 133 245.5 Q 135.8 235.3 143.5 230 L 144.5 230 Q 146.3 227.8 149.5 227 L 151.5 227 L 152.5 226 Z " /><path fill="rgb(0,0,0)" stroke="rgb(0,0,0)" stroke-width="1" opacity="1" d="M 349.5 226 Q 358.6 224.9 364.5 227 Q 370.9 229.6 375 234.5 Q 381.8 241.2 381 255.5 Q 379 266.5 371.5 272 L 370.5 272 Q 368.3 274.8 364.5 276 Q 361.2 277.8 355.5 277 L 354.5 278 L 353.5 277 Q 348.4 277.6 345.5 276 Q 339 273.5 335 268.5 Q 328.2 261.8 329 247.5 L 330 246.5 L 330 243.5 Q 332.5 241.5 333 237.5 Q 337.5 236 337 232 Q 341.7 227.9 349.5 226 Z " /><path fill="rgb(0,0,0)" stroke="rgb(0,0,0)" stroke-width="1" opacity="1" d="M 246.5 291 Q 283.7 288.3 300 306.5 Q 305.5 312 308 320.5 L 308 333.5 Q 302.6 351.1 289.5 361 L 288.5 361 Q 283.2 366.2 275.5 369 L 273.5 369 Q 271.8 371.3 267.5 371 L 266 372.5 Q 274.3 383.3 287.5 389 L 289.5 389 L 290.5 390 Q 294.8 389.7 296.5 392 L 300.5 392 L 301.5 393 L 317.5 393 L 318.5 392 L 322.5 392 L 323.5 391 L 326.5 391 L 327.5 390 L 329.5 390 L 330.5 389 L 332.5 389 Q 334.2 386.7 338.5 387 Q 343.5 388 346 391.5 Q 348.2 394.3 347 400.5 Q 345.9 403.4 343.5 405 Q 338.4 408.1 332 409 Q 325.7 429.9 309.5 442 Q 298.2 451.7 281.5 456 Q 278.3 455.3 277.5 457 L 273.5 457 L 272.5 458 L 264.5 458 L 263.5 459 L 248.5 459 L 247.5 458 L 239.5 458 Q 238.5 456 234.5 457 L 233.5 456 L 230.5 456 L 229.5 455 L 227.5 455 Q 225.8 452.7 221.5 453 L 218.5 451 L 216.5 451 Q 201.3 443.3 191 430.5 L 191 429.5 Q 188 427.1 186 423.5 L 186 422.5 L 185 421.5 L 185 420.5 Q 182.1 417.9 181 413.5 L 181 411.5 Q 180.3 409.3 178.5 408 Q 170.3 407.3 167 401.5 Q 165.2 399.3 166 394.5 Q 167 391 169.5 389 Q 171.8 386.3 177.5 387 L 178.5 388 L 180.5 388 L 181.5 389 L 183.5 389 L 184.5 390 Q 188.8 389.7 190.5 392 Q 195.3 390.8 196.5 393 L 212.5 393 Q 234.7 388.2 247 373.5 Q 248.3 369.8 244.5 371 Q 227.1 366.4 217 354.5 Q 210.8 347.7 207 338.5 Q 205.5 336 206 331.5 L 205 330.5 L 205 323.5 Q 208.1 309.1 218.5 302 L 219.5 302 L 221.5 300 Q 226 299 228.5 296 L 230.5 296 L 231.5 295 L 233.5 295 L 234.5 294 Q 238.8 294.3 240.5 292 L 245.5 292 L 246.5 291 Z M 257 392 Q 246 402 232 408 Q 227 408 226 410 L 224 410 L 223 411 L 219 411 L 218 412 L 212 412 L 211 413 L 204 413 L 203 414 Q 206 414 206 418 Q 213 426 223 432 Q 227 435 234 436 L 235 437 Q 238 436 239 438 L 244 438 L 245 439 Q 279 442 296 428 Q 304 422 309 414 Q 308 412 304 413 L 303 412 L 296 412 L 295 411 Q 286 410 280 407 Q 267 401 257 392 Z " /><path fill="rgb(242,149,85)" stroke="rgb(242,149,85)" stroke-width="1" opacity="1" d="M 69.5 20 Q 109.3 29.2 140.5 47 Q 162.1 58.9 179 75.5 Q 176.9 79.4 173.5 82 Q 164.8 89.3 153.5 94 Q 148.8 96.3 140.5 95 Q 139.2 93.2 136.5 93 Q 115.8 68.8 90.5 49 L 89.5 49 L 88.5 48 L 87.5 48 L 86.5 47 L 85.5 47 Q 82.9 44.1 78.5 43 L 76.5 43 L 75.5 42 Q 68.8 39.7 58.5 41 Q 57.8 42.8 54.5 42 Q 53.2 41.2 55 40.5 L 55 31.5 Q 56.3 26.8 59.5 24 L 60.5 24 Q 61.9 21.9 64.5 21 Q 68.5 22 69.5 20 Z " /><path fill="rgb(242,149,85)" stroke="rgb(242,149,85)" stroke-width="1" opacity="1" d="M 442.5 20 Q 449.4 20.8 453 24 L 453 25.5 Q 456.2 27.8 457 32.5 Q 457 39.7 457 42 Q 451.5 39.7 440.5 41 Q 426.7 44.2 417.5 52 L 412.5 57 L 411.5 57 L 375.5 93 Q 371.2 96.7 361.5 95 Q 345.6 89.4 335 78.5 Q 335.2 75.7 333 75.5 Q 349.9 58.9 371.5 47 Q 402.7 29.2 442.5 20 Z " /><path fill="rgb(242,149,85)" stroke="rgb(242,149,85)" stroke-width="1" opacity="1" d="M 241.5 77 L 270.5 77 L 271.5 78 L 283.5 78 L 284.5 79 L 292.5 79 L 293.5 80 L 299.5 80 L 300.5 81 L 305.5 81 Q 306.5 83 310.5 82 Q 312.8 82.8 314 84.5 Q 318.6 93.4 326.5 99 Q 337.7 108.3 352.5 114 Q 360.4 117.6 373.5 116 L 374.5 115 Q 379.5 115.5 381.5 113 L 384.5 113 Q 399.7 120.8 412.5 131 Q 414.7 130.8 415.5 132 Q 419.4 134.2 422 137.5 Q 422 141.1 420 142.5 L 420 144.5 Q 421.3 150.3 425.5 153 Q 437.4 160.6 446 171.5 Q 489.4 236.1 492 341.5 L 491 342.5 L 491 348.5 L 490 349.5 L 490 353.5 Q 487.5 356 488 360 Q 485.9 360.5 485 358.5 Q 474.8 341.3 459.5 329 Q 443.9 315.6 422.5 308 L 419.5 308 Q 418.2 306.2 415.5 306 Q 412.3 306.8 411.5 305 L 407.5 305 L 406.5 304 L 401.5 304 L 400.5 303 L 390.5 303 L 389.5 302 L 380.5 302 L 379.5 303 L 372.5 303 L 371.5 304 L 367.5 304 Q 366.8 305.8 363.5 305 Q 357 306.5 352.5 310 L 350.5 310 Q 328.5 321.5 309.5 336 L 308 336 Q 310 331.5 309 322.5 Q 305.5 308 294.5 301 Q 285.2 293.8 271.5 291 Q 266 292.5 264.5 290 L 249.5 290 L 248.5 291 L 242.5 291 L 241.5 292 L 238.5 292 L 237.5 293 L 234.5 293 Q 233.4 295.4 229.5 295 Q 218.1 299.6 211 308.5 L 211 309.5 Q 207.4 312.4 206 317.5 Q 204.3 320.7 205 326.5 L 204 327.5 L 205 328.5 Q 204.3 334.6 206 337 L 204.5 337 Q 202 334 197.5 333 Q 180.2 319.3 159.5 309 Q 150.6 304.9 139.5 303 Q 133.3 304.8 131.5 302 L 122.5 302 L 121.5 303 L 111.5 303 L 110.5 304 L 105.5 304 L 104.5 305 L 100.5 305 Q 99.8 306.8 96.5 306 Q 94.5 308.5 89.5 308 L 86.5 310 L 84.5 310 L 81.5 312 L 79.5 312 Q 76.7 315.2 71.5 316 Q 50.7 327.7 36 345.5 L 36 346.5 Q 29.6 352.1 25.5 360 Q 22.9 360.8 24 357.5 L 23 356.5 L 23 353.5 L 22 352.5 Q 22.8 349.3 21 348.5 Q 22.3 341.7 20 338.5 L 21 337.5 L 21 315.5 L 22 314.5 L 22 304.5 L 23 303.5 L 23 296.5 Q 25.5 295 24 289.5 L 25 288.5 L 25 283.5 L 26 282.5 L 26 277.5 L 27 276.5 L 27 271.5 Q 29 270.5 28 266.5 L 29 265.5 L 29 262.5 L 30 261.5 Q 29.3 258.2 31 257.5 L 31 253.5 Q 34 249.5 34 242.5 Q 35.7 241.2 36 238.5 L 36 235.5 Q 42.9 212.4 53 192.5 Q 62 173 77.5 160 L 78.5 160 Q 83.7 154.2 90 149.5 Q 92.7 147.2 92 141.5 Q 90.2 140.2 90 137.5 Q 93.8 135.3 96.5 132 Q 98.7 132.2 99.5 131 Q 104 126.1 110.5 123 Q 117 118 125.5 115 L 127.5 113 L 130.5 113 Q 138.1 117.9 152.5 116 Q 180.1 108.1 196 88.5 L 196 87.5 Q 198.3 85.8 199.5 83 Q 201.7 81.2 206.5 82 L 207.5 81 L 212.5 81 L 213.5 80 Q 219 81.5 220.5 79 L 227.5 79 L 228.5 78 L 240.5 78 L 241.5 77 Z M 177 178 Q 171 179 167 182 Q 162 185 161 191 Q 161 200 165 205 L 173 212 Q 176 213 179 215 Q 183 214 185 216 Q 186 216 187 215 Q 192 216 195 214 Q 198 213 201 210 L 202 210 Q 206 206 208 200 Q 209 194 207 191 Q 206 187 203 186 L 203 184 L 202 184 Q 199 181 195 179 Q 191 180 191 178 L 177 178 Z M 323 178 L 322 179 L 320 179 Q 316 180 315 182 L 314 182 Q 309 186 306 192 Q 304 201 308 206 Q 311 210 317 213 Q 320 216 328 215 L 329 216 Q 337 215 343 211 Q 349 206 352 198 Q 354 190 351 187 Q 344 175 323 178 Z M 154 225 Q 147 227 143 230 Q 135 236 132 247 L 132 257 Q 133 263 137 268 Q 142 276 154 278 L 164 278 Q 169 277 174 274 Q 182 268 185 257 L 185 247 Q 184 240 180 236 Q 173 224 154 225 Z M 351 225 Q 345 226 341 229 Q 335 233 331 240 Q 328 243 329 251 L 328 252 Q 328 253 329 254 Q 328 259 330 262 Q 332 266 335 269 L 335 270 Q 340 276 350 278 L 361 278 Q 368 276 373 272 Q 376 269 378 266 Q 380 264 380 260 L 381 259 L 381 255 L 382 254 L 382 250 L 381 249 Q 382 244 380 242 Q 378 236 374 234 L 374 232 L 373 232 Q 369 228 364 226 Q 358 224 351 225 Z " /><path fill="rgb(245,221,196)" stroke="rgb(245,221,196)" stroke-width="1" opacity="1" d="M 96.5 82 L 105 90.5 L 104.5 91 L 96 82.5 L 96.5 82 Z " /><path fill="rgb(245,221,196)" stroke="rgb(245,221,196)" stroke-width="1" opacity="1" d="M 449.5 145 Q 452 146 450.5 147 Q 448 146 449.5 145 Z " /><path fill="rgb(245,221,196)" stroke="rgb(245,221,196)" stroke-width="1" opacity="1" d="M 200.5 183 L 204 186.5 L 203.5 187 L 200 183.5 L 200.5 183 Z " /><path fill="rgb(245,221,196)" stroke="rgb(245,221,196)" stroke-width="1" opacity="1" d="M 347.5 183 Q 351.5 184.5 349.5 186 L 347 183.5 L 347.5 183 Z " /><path fill="rgb(245,221,196)" stroke="rgb(245,221,196)" stroke-width="1" opacity="1" d="M 168.5 207 Q 171 208 169.5 209 Q 167 208 168.5 207 Z " /><path fill="rgb(245,221,196)" stroke="rgb(245,221,196)" stroke-width="1" opacity="1" d="M 54.5 328 Q 56 329 53.5 330 Q 52 329 54.5 328 Z " /><path fill="rgb(245,221,196)" stroke="rgb(245,221,196)" stroke-width="1" opacity="1" d="M 457.5 328 Q 460 329 458.5 330 Q 456 329 457.5 328 Z " /><path fill="rgb(245,221,196)" stroke="rgb(245,221,196)" stroke-width="1" opacity="1" d="M 36.5 346 Q 38 347 35.5 348 Q 34 347 36.5 346 Z " /><path fill="rgb(245,221,196)" stroke="rgb(245,221,196)" stroke-width="1" opacity="1" d="M 475.5 346 Q 478 347 476.5 348 Q 474 347 475.5 346 Z " /><path fill="rgb(245,221,196)" stroke="rgb(245,221,196)" stroke-width="1" opacity="1" d="M 470.5 389 Q 472.5 390.5 468.5 392 L 468 391.5 L 470.5 389 Z " /><path fill="rgb(245,221,196)" stroke="rgb(245,221,196)" stroke-width="1" opacity="1" d="M 45.5 394 L 48 396.5 L 47.5 397 Q 43.5 395.5 45.5 394 Z " /><path fill="rgb(245,221,196)" stroke="rgb(245,221,196)" stroke-width="1" opacity="1" d="M 464.5 394 Q 466 395 463.5 396 Q 462 395 464.5 394 Z " /><path fill="rgb(245,221,196)" stroke="rgb(245,221,196)" stroke-width="1" opacity="1" d="M 50.5 398 Q 53 399 51.5 400 Q 49 399 50.5 398 Z " /><path fill="rgb(245,221,196)" stroke="rgb(245,221,196)" stroke-width="1" opacity="1" d="M 459.5 398 Q 461 399 458.5 400 Q 457 399 459.5 398 Z " /><path fill="rgb(245,221,196)" stroke="rgb(245,221,196)" stroke-width="1" opacity="1" d="M 54.5 401 Q 57 402 55.5 403 Q 53 402 54.5 401 Z " /><path fill="rgb(245,221,196)" stroke="rgb(245,221,196)" stroke-width="1" opacity="1" d="M 455.5 401 Q 457 402 454.5 403 Q 453 402 455.5 401 Z " /><path fill="rgb(245,221,196)" stroke="rgb(245,221,196)" stroke-width="1" opacity="1" d="M 61.5 406 Q 64 407 62.5 408 Q 60 407 61.5 406 Z " /><path fill="rgb(245,221,196)" stroke="rgb(245,221,196)" stroke-width="1" opacity="1" d="M 448.5 406 Q 450 407 447.5 408 Q 446 407 448.5 406 Z " /><path fill="rgb(245,221,196)" stroke="rgb(245,221,196)" stroke-width="1" opacity="1" d="M 445.5 408 Q 447 409 444.5 410 Q 443 409 445.5 408 Z " /><path fill="rgb(245,221,196)" stroke="rgb(245,221,196)" stroke-width="1" opacity="1" d="M 442.5 410 Q 444 411 441.5 412 Q 440 411 442.5 410 Z " /><path fill="rgb(245,221,196)" stroke="rgb(245,221,196)" stroke-width="1" opacity="1" d="M 70.5 412 Q 73 413 71.5 414 Q 69 413 70.5 412 Z " /><path fill="rgb(245,221,196)" stroke="rgb(245,221,196)" stroke-width="1" opacity="1" d="M 195.5 436 Q 199.5 437.5 197.5 439 L 195 436.5 L 195.5 436 Z " /><path fill="rgb(245,221,196)" stroke="rgb(245,221,196)" stroke-width="1" opacity="1" d="M 316.5 436 Q 318 437 315.5 438 Q 314 437 316.5 436 Z " /><path fill="rgb(245,221,196)" stroke="rgb(245,221,196)" stroke-width="1" opacity="1" d="M 191.5 458 Q 193.5 457.5 194 458.5 Q 193.5 459.5 191.5 459 Q 190.5 458.5 191.5 458 Z " /><path fill="rgb(245,221,196)" stroke="rgb(245,221,196)" stroke-width="1" opacity="1" d="M 205.5 460 Q 207.5 459.5 208 460.5 Q 207.5 461.5 205.5 461 Q 204.5 460.5 205.5 460 Z " /><path fill="rgb(245,221,196)" stroke="rgb(245,221,196)" stroke-width="1" opacity="1" d="M 302.5 460 Q 304.5 459.5 305 460.5 Q 304.5 461.5 302.5 461 Q 301.5 460.5 302.5 460 Z " /><path fill="rgb(245,221,196)" stroke="rgb(245,221,196)" stroke-width="1" opacity="1" d="M 213.5 461 Q 216.3 460.3 217 461.5 Q 216.3 462.8 213.5 462 Q 212.5 461.5 213.5 461 Z " /><path fill="rgb(245,221,196)" stroke="rgb(245,221,196)" stroke-width="1" opacity="1" d="M 293.5 461 Q 296.3 460.3 297 461.5 Q 296.3 462.8 293.5 462 Q 292.5 461.5 293.5 461 Z " /><path fill="rgb(245,221,196)" stroke="rgb(245,221,196)" stroke-width="1" opacity="1" d="M 224.5 462 Q 228.8 460.8 230 462.5 Q 228.7 464.2 224.5 463 Q 223.5 462.5 224.5 462 Z " /><path fill="rgb(245,221,196)" stroke="rgb(245,221,196)" stroke-width="1" opacity="1" d="M 280.5 462 Q 284.7 460.8 286 462.5 Q 284.7 464.2 280.5 463 Q 279.5 462.5 280.5 462 Z " /><path fill="rgb(245,221,196)" stroke="rgb(245,221,196)" stroke-width="1" opacity="1" d="M 243.5 463 L 266.5 463 L 267 463.5 L 266.5 464 L 243.5 464 Q 242.5 463.5 243.5 463 Z " /><path fill="rgb(247,226,204)" stroke="rgb(247,226,204)" stroke-width="1" opacity="1" d="M 456.5 65 Q 459 66 457.5 67 Q 455 66 456.5 65 Z " /><path fill="rgb(247,226,204)" stroke="rgb(247,226,204)" stroke-width="1" opacity="1" d="M 385.5 111 Q 387 112 384.5 113 Q 383 112 385.5 111 Z " /><path fill="rgb(247,226,204)" stroke="rgb(247,226,204)" stroke-width="1" opacity="1" d="M 346.5 205 Q 348 206 345.5 207 Q 344 206 346.5 205 Z " /><path fill="rgb(247,226,204)" stroke="rgb(247,226,204)" stroke-width="1" opacity="1" d="M 203.5 206 L 204 206.5 L 200.5 210 L 200 209.5 L 203.5 206 Z " /><path fill="rgb(247,226,204)" stroke="rgb(247,226,204)" stroke-width="1" opacity="1" d="M 473.5 344 Q 476 345 474.5 346 Q 472 345 473.5 344 Z " /><path fill="rgb(247,226,204)" stroke="rgb(247,226,204)" stroke-width="1" opacity="1" d="M 245.5 373 L 246 373.5 L 242.5 377 L 242 376.5 L 245.5 373 Z " /><path fill="rgb(247,226,204)" stroke="rgb(247,226,204)" stroke-width="1" opacity="1" d="M 472.5 387 Q 474 388 471.5 389 Q 470 388 472.5 387 Z " /><path fill="rgb(247,226,204)" stroke="rgb(247,226,204)" stroke-width="1" opacity="1" d="M 466.5 392 Q 468 393 465.5 394 Q 464 393 466.5 392 Z " /><path fill="rgb(247,226,204)" stroke="rgb(247,226,204)" stroke-width="1" opacity="1" d="M 63.5 407 Q 66 408 64.5 409 Q 62 408 63.5 407 Z " /><path fill="rgb(247,226,204)" stroke="rgb(247,226,204)" stroke-width="1" opacity="1" d="M 193.5 434 Q 196 435 194.5 436 Q 192 435 193.5 434 Z " /><path fill="rgb(247,226,204)" stroke="rgb(247,226,204)" stroke-width="1" opacity="1" d="M 318.5 434 Q 320 435 317.5 436 Q 316 435 318.5 434 Z " /><path fill="rgb(247,226,204)" stroke="rgb(247,226,204)" stroke-width="1" opacity="1" d="M 314.5 438 Q 316 439 313.5 440 Q 312 439 314.5 438 Z " /><path fill="rgb(247,227,205)" stroke="rgb(247,227,205)" stroke-width="1" opacity="1" d="M 61.5 62 L 68.5 62 L 69.5 63 L 71.5 63 Q 74.3 66.2 79.5 67 L 83.5 71 L 84.5 71 L 122.5 109 Q 124.2 111.4 127 111 Q 127.5 113.1 125.5 114 Q 106.1 123.1 90.5 136 L 88.5 136 Q 86.3 131.7 78.5 133 Q 77.2 134.7 74.5 135 Q 67.9 139.9 62.5 146 L 61.5 146 L 60 144.5 L 60 140.5 L 59 139.5 Q 60 135.5 58 134.5 L 58 129.5 L 57 128.5 L 57 122.5 L 56 121.5 L 56 114.5 L 55 113.5 L 55 103.5 L 54 102.5 L 54 83.5 L 53 82.5 L 53 68.5 Q 56 64 61.5 62 Z " /><path fill="rgb(247,227,205)" stroke="rgb(247,227,205)" stroke-width="1" opacity="1" d="M 443.5 62 Q 455.8 60.8 459 68.5 L 459 88.5 L 458 89.5 L 458 105.5 L 457 106.5 L 457 115.5 L 456 116.5 L 456 122.5 Q 453.5 124 455 129.5 L 454 130.5 L 454 135.5 L 453 136.5 L 453 140.5 Q 450.8 141.8 452 146 Q 449.2 146.4 447.5 144 Q 443.2 138.8 437.5 135 Q 434.5 132 427.5 133 Q 424.9 133.9 423.5 136 L 422.5 136 Q 404.8 123.2 385 112.5 Q 385.2 109.7 388.5 110 L 426.5 72 Q 433.4 65.4 443.5 62 Z " /><path fill="rgb(247,227,205)" stroke="rgb(247,227,205)" stroke-width="1" opacity="1" d="M 182.5 178 Q 198.8 178.2 205 188.5 Q 208 192.5 207 200.5 Q 204.3 207.3 198.5 211 Q 192.9 215.4 182.5 215 Q 171.4 212.6 166 204.5 L 166 203.5 Q 163.8 201.7 163 198.5 L 163 196.5 L 162 195.5 L 162 190.5 Q 163.1 185.6 166.5 183 Q 170 180 175.5 179 Q 181 180.5 182.5 178 Z " /><path fill="rgb(247,227,205)" stroke="rgb(247,227,205)" stroke-width="1" opacity="1" d="M 327.5 178 L 330.5 178 L 331.5 179 L 337.5 179 Q 338.3 180.8 341.5 180 Q 347 182 350 186.5 Q 352.5 190 351 197.5 Q 348.4 204.4 343.5 209 Q 338 215.5 325.5 215 Q 314.5 213 309 205.5 Q 306.3 201.7 306 195.5 Q 307.4 187.9 312.5 184 L 313.5 184 Q 315.7 181.2 319.5 180 Q 322 178.5 326.5 179 L 327.5 178 Z " /><path fill="rgb(247,227,205)" stroke="rgb(247,227,205)" stroke-width="1" opacity="1" d="M 118.5 303 L 134.5 303 Q 135.7 305.2 140.5 304 L 141.5 305 L 145.5 305 L 146.5 306 L 148.5 306 Q 150.2 308.3 154.5 308 L 157.5 310 L 159.5 310 Q 168 313.5 174.5 319 Q 176.7 318.8 177.5 320 Q 191.1 330.9 207 339.5 Q 211.6 353.4 222.5 361 Q 232 369 246 372.5 Q 237.4 383.4 223.5 389 Q 219.2 388.7 217.5 391 L 213.5 391 L 212.5 392 L 195.5 392 L 194.5 391 L 190.5 391 Q 188.5 388.5 183.5 389 L 180.5 387 Q 176.6 387.4 174.5 386 Q 169.5 387 167 390.5 Q 164.2 393.2 165 399.5 Q 166.3 403.7 169.5 406 Q 173 406 174.5 408 L 176.5 408 L 177.5 409 L 179 409 Q 184.6 428.1 198.5 440 Q 211.2 451.8 230.5 457 L 234.5 457 L 235.5 458 Q 239.5 457 240.5 459 L 250.5 459 L 251.5 460 L 260.5 460 L 261.5 459 L 271.5 459 L 272.5 458 L 276.5 458 Q 277.5 456 281.5 457 L 282.5 456 L 284.5 456 Q 286.2 453.7 290.5 454 L 293.5 452 L 295.5 452 Q 309.4 445.4 319 434.5 L 319 433.5 Q 323.9 429.4 327 423.5 L 327 422.5 L 328 421.5 L 328 420.5 Q 330.9 417.9 332 413.5 L 332 411.5 L 334.5 409 Q 343.1 408.1 347 402.5 Q 349.2 399.7 348 393.5 Q 346.6 389.9 343.5 388 Q 340.3 385.7 333.5 387 L 332.5 388 Q 328.2 387.7 326.5 390 Q 323.3 389.3 322.5 391 L 318.5 391 L 317.5 392 L 301.5 392 Q 278.9 387.7 267 372.5 Q 289.5 367 301 350.5 L 301 349.5 Q 305.6 345.6 307 338.5 L 308.5 337 L 309.5 337 Q 311 334.5 314.5 334 L 316.5 332 L 317.5 332 L 319.5 330 L 320.5 330 L 322.5 328 L 323.5 328 Q 328.1 323.1 334.5 320 Q 336.7 320.2 337.5 319 L 339.5 317 Q 341.7 317.2 342.5 316 Q 346.2 311.7 352.5 310 L 354.5 310 L 357.5 308 L 359.5 308 L 360.5 307 Q 364.8 307.3 366.5 305 L 370.5 305 L 371.5 304 Q 376.2 305.2 377.5 303 L 393.5 303 L 394.5 304 L 402.5 304 L 403.5 305 L 407.5 305 L 408.5 306 L 412.5 306 Q 413.3 307.8 416.5 307 Q 429.7 310.8 440.5 317 Q 459.4 327.6 473 343.5 L 473 344.5 Q 480.6 351.4 486 360.5 L 486 363.5 Q 482.1 375.1 475 383.5 Q 473.7 385 474 387 L 472.5 387 Q 460.7 398.7 446.5 408 Q 433.8 417.3 418.5 424 L 416.5 426 Q 390.3 439.8 359.5 449 L 356.5 449 Q 355.2 450.7 352.5 451 L 349.5 451 L 348.5 452 L 345.5 452 L 344.5 453 L 341.5 453 L 340.5 454 Q 337.3 453.3 336.5 455 L 332.5 455 L 331.5 456 L 327.5 456 Q 326.5 458 322.5 457 L 321.5 458 Q 316.8 456.8 315.5 459 L 309.5 459 L 308.5 460 L 301.5 460 L 300.5 461 L 292.5 461 L 291.5 462 L 279.5 462 L 278.5 463 L 231.5 463 L 230.5 462 L 218.5 462 L 217.5 461 L 209.5 461 Q 207.8 458.3 201.5 460 L 200.5 459 Q 195.7 460.2 194.5 458 L 188.5 458 L 187.5 457 L 183.5 457 L 182.5 456 L 178.5 456 Q 177.5 454 173.5 455 Q 150.3 449.7 129.5 442 Q 77.8 422.7 40 389.5 L 40 388.5 L 38 386.5 Q 38.2 384.3 37 383.5 L 35 381.5 Q 35.2 379.3 34 378.5 Q 29.7 374.8 28 368.5 Q 28.4 364.6 26 363.5 L 26 360.5 Q 36.8 343.8 51.5 331 Q 64.7 319.7 81.5 312 L 83.5 312 L 86.5 310 L 88.5 310 L 89.5 309 Q 93.8 309.3 95.5 307 L 98.5 307 L 99.5 306 L 103.5 306 L 104.5 305 Q 108.5 306 109.5 304 L 117.5 304 L 118.5 303 Z " /><path fill="rgb(138,38,35)" stroke="rgb(138,38,35)" stroke-width="1" opacity="1" d="M 54.5 33 Q 56.2 34.3 55 38.5 Q 54.5 39.5 54 38.5 Q 52.7 34.3 54.5 33 Z " /><path fill="rgb(138,38,35)" stroke="rgb(138,38,35)" stroke-width="1" opacity="1" d="M 457.5 34 Q 459 35 458 38.5 Q 457.5 39.5 457 38.5 Q 456 35 457.5 34 Z " /><path fill="rgb(138,38,35)" stroke="rgb(138,38,35)" stroke-width="1" opacity="1" d="M 59.5 41 Q 62.3 40.3 63 41.5 Q 62.3 42.8 59.5 42 Q 58.5 41.5 59.5 41 Z " /><path fill="rgb(138,38,35)" stroke="rgb(138,38,35)" stroke-width="1" opacity="1" d="M 65.5 41 Q 69 40 70 41.5 Q 69 43 65.5 42 Q 64.5 41.5 65.5 41 Z " /><path fill="rgb(138,38,35)" stroke="rgb(138,38,35)" stroke-width="1" opacity="1" d="M 442.5 41 Q 446 40 447 41.5 Q 446 43 442.5 42 Q 441.5 41.5 442.5 41 Z " /><path fill="rgb(138,38,35)" stroke="rgb(138,38,35)" stroke-width="1" opacity="1" d="M 448.5 41 Q 452 40 453 41.5 Q 452 43 448.5 42 Q 447.5 41.5 448.5 41 Z " /><path fill="rgb(138,38,35)" stroke="rgb(138,38,35)" stroke-width="1" opacity="1" d="M 368.5 48 Q 370 49 367.5 50 Q 366 49 368.5 48 Z " /><path fill="rgb(138,38,35)" stroke="rgb(138,38,35)" stroke-width="1" opacity="1" d="M 91.5 50 Q 94 51 92.5 52 Q 90 51 91.5 50 Z " /><path fill="rgb(138,38,35)" stroke="rgb(138,38,35)" stroke-width="1" opacity="1" d="M 420.5 50 Q 422 51 419.5 52 Q 418 51 420.5 50 Z " /><path fill="rgb(138,38,35)" stroke="rgb(138,38,35)" stroke-width="1" opacity="1" d="M 148.5 51 Q 151 52 149.5 53 Q 147 52 148.5 51 Z " /><path fill="rgb(138,38,35)" stroke="rgb(138,38,35)" stroke-width="1" opacity="1" d="M 95.5 53 L 99 56.5 L 98.5 57 L 95 53.5 L 95.5 53 Z " /><path fill="rgb(138,38,35)" stroke="rgb(138,38,35)" stroke-width="1" opacity="1" d="M 416.5 53 L 417 53.5 L 413.5 57 L 413 56.5 L 416.5 53 Z " /><path fill="rgb(138,38,35)" stroke="rgb(138,38,35)" stroke-width="1" opacity="1" d="M 160.5 59 Q 163 60 161.5 61 Q 159 60 160.5 59 Z " /><path fill="rgb(138,38,35)" stroke="rgb(138,38,35)" stroke-width="1" opacity="1" d="M 351.5 59 Q 353 60 350.5 61 Q 349 60 351.5 59 Z " /><path fill="rgb(138,38,35)" stroke="rgb(138,38,35)" stroke-width="1" opacity="1" d="M 407.5 61 L 408 61.5 L 387.5 82 L 387 81.5 L 407.5 61 Z " /><path fill="rgb(138,38,35)" stroke="rgb(138,38,35)" stroke-width="1" opacity="1" d="M 105.5 62 L 124 80.5 L 123.5 81 L 105 62.5 L 105.5 62 Z " /><path fill="rgb(138,38,35)" stroke="rgb(138,38,35)" stroke-width="1" opacity="1" d="M 164.5 62 Q 167 63 165.5 64 Q 163 63 164.5 62 Z " /><path fill="rgb(138,38,35)" stroke="rgb(138,38,35)" stroke-width="1" opacity="1" d="M 347.5 62 Q 349 63 346.5 64 Q 345 63 347.5 62 Z " /><path fill="rgb(138,38,35)" stroke="rgb(138,38,35)" stroke-width="1" opacity="1" d="M 55.5 64 Q 57.5 65.5 53.5 67 L 53 66.5 L 55.5 64 Z " /><path fill="rgb(138,38,35)" stroke="rgb(138,38,35)" stroke-width="1" opacity="1" d="M 456.5 64 Q 460.5 65.5 458.5 67 Q 454.5 65.5 456.5 64 Z " /><path fill="rgb(138,38,35)" stroke="rgb(138,38,35)" stroke-width="1" opacity="1" d="M 168.5 65 Q 171 66 169.5 67 Q 167 66 168.5 65 Z " /><path fill="rgb(138,38,35)" stroke="rgb(138,38,35)" stroke-width="1" opacity="1" d="M 343.5 65 Q 345 66 342.5 67 Q 341 66 343.5 65 Z " /><path fill="rgb(138,38,35)" stroke="rgb(138,38,35)" stroke-width="1" opacity="1" d="M 82.5 68 Q 85 69 83.5 70 Q 81 69 82.5 68 Z " /><path fill="rgb(138,38,35)" stroke="rgb(138,38,35)" stroke-width="1" opacity="1" d="M 459.5 68 L 460 68.5 L 460 84.5 Q 459.5 85.5 459 84.5 L 459 68.5 L 459.5 68 Z " /><path fill="rgb(138,38,35)" stroke="rgb(138,38,35)" stroke-width="1" opacity="1" d="M 173.5 69 L 177 72.5 L 176.5 73 L 173 69.5 L 173.5 69 Z " /><path fill="rgb(138,38,35)" stroke="rgb(138,38,35)" stroke-width="1" opacity="1" d="M 428.5 69 Q 430 70 427.5 71 Q 426 70 428.5 69 Z " /><path fill="rgb(138,38,35)" stroke="rgb(138,38,35)" stroke-width="1" opacity="1" d="M 337.5 70 L 338 70.5 L 334.5 74 L 334 73.5 L 337.5 70 Z " /><path fill="rgb(138,38,35)" stroke="rgb(138,38,35)" stroke-width="1" opacity="1" d="M 252.5 76 L 259.5 76 L 260 76.5 L 259.5 77 L 252.5 77 Q 251.5 76.5 252.5 76 Z " /><path fill="rgb(138,38,35)" stroke="rgb(138,38,35)" stroke-width="1" opacity="1" d="M 232.5 77 Q 236.7 75.8 238 77.5 Q 236.7 79.2 232.5 78 Q 231.5 77.5 232.5 77 Z " /><path fill="rgb(138,38,35)" stroke="rgb(138,38,35)" stroke-width="1" opacity="1" d="M 274.5 77 Q 278.8 75.8 280 77.5 Q 278.7 79.2 274.5 78 Q 273.5 77.5 274.5 77 Z " /><path fill="rgb(138,38,35)" stroke="rgb(138,38,35)" stroke-width="1" opacity="1" d="M 93.5 78 L 109 93.5 L 108.5 94 L 93 78.5 L 93.5 78 Z " /><path fill="rgb(138,38,35)" stroke="rgb(138,38,35)" stroke-width="1" opacity="1" d="M 222.5 78 Q 225.3 77.3 226 78.5 Q 225.3 79.8 222.5 79 Q 221.5 78.5 222.5 78 Z " /><path fill="rgb(138,38,35)" stroke="rgb(138,38,35)" stroke-width="1" opacity="1" d="M 286.5 78 Q 289.3 77.3 290 78.5 Q 289.3 79.8 286.5 79 Q 285.5 78.5 286.5 78 Z " /><path fill="rgb(138,38,35)" stroke="rgb(138,38,35)" stroke-width="1" opacity="1" d="M 176.5 79 Q 178 80 175.5 81 Q 174 80 176.5 79 Z " /><path fill="rgb(138,38,35)" stroke="rgb(138,38,35)" stroke-width="1" opacity="1" d="M 215.5 79 Q 217.5 78.5 218 79.5 Q 217.5 80.5 215.5 80 Q 214.5 79.5 215.5 79 Z " /><path fill="rgb(138,38,35)" stroke="rgb(138,38,35)" stroke-width="1" opacity="1" d="M 294.5 79 Q 296.5 78.5 297 79.5 Q 296.5 80.5 294.5 80 Q 293.5 79.5 294.5 79 Z " /><path fill="rgb(138,38,35)" stroke="rgb(138,38,35)" stroke-width="1" opacity="1" d="M 209.5 80 Q 211.5 79.5 212 80.5 Q 211.5 81.5 209.5 81 Q 208.5 80.5 209.5 80 Z " /><path fill="rgb(138,38,35)" stroke="rgb(138,38,35)" stroke-width="1" opacity="1" d="M 301.5 80 Q 303.5 79.5 304 80.5 Q 303.5 81.5 301.5 81 Q 300.5 80.5 301.5 80 Z " /><path fill="rgb(138,38,35)" stroke="rgb(138,38,35)" stroke-width="1" opacity="1" d="M 199.5 82 Q 201 83 198.5 84 Q 197 83 199.5 82 Z " /><path fill="rgb(138,38,35)" stroke="rgb(138,38,35)" stroke-width="1" opacity="1" d="M 312.5 82 L 315 84.5 L 314.5 85 Q 310.5 83.5 312.5 82 Z " /><path fill="rgb(138,38,35)" stroke="rgb(138,38,35)" stroke-width="1" opacity="1" d="M 170.5 84 Q 172 85 169.5 86 Q 168 85 170.5 84 Z " /><path fill="rgb(138,38,35)" stroke="rgb(138,38,35)" stroke-width="1" opacity="1" d="M 341.5 84 Q 344 85 342.5 86 Q 340 85 341.5 84 Z " /><path fill="rgb(138,38,35)" stroke="rgb(138,38,35)" stroke-width="1" opacity="1" d="M 167.5 86 Q 169 87 166.5 88 Q 165 87 167.5 86 Z " /><path fill="rgb(138,38,35)" stroke="rgb(138,38,35)" stroke-width="1" opacity="1" d="M 315.5 86 Q 318 87 316.5 88 Q 314 87 315.5 86 Z " /><path fill="rgb(138,38,35)" stroke="rgb(138,38,35)" stroke-width="1" opacity="1" d="M 344.5 86 Q 347 87 345.5 88 Q 343 87 344.5 86 Z " /><path fill="rgb(138,38,35)" stroke="rgb(138,38,35)" stroke-width="1" opacity="1" d="M 193.5 90 L 194 90.5 L 186.5 98 L 186 97.5 L 193.5 90 Z " /><path fill="rgb(138,38,35)" stroke="rgb(138,38,35)" stroke-width="1" opacity="1" d="M 319.5 91 L 325 96.5 L 324.5 97 L 319 91.5 L 319.5 91 Z " /><path fill="rgb(138,38,35)" stroke="rgb(138,38,35)" stroke-width="1" opacity="1" d="M 135.5 92 Q 138 93 136.5 94 Q 134 93 135.5 92 Z " /><path fill="rgb(138,38,35)" stroke="rgb(138,38,35)" stroke-width="1" opacity="1" d="M 376.5 92 Q 378 93 375.5 94 Q 374 93 376.5 92 Z " /><path fill="rgb(138,38,35)" stroke="rgb(138,38,35)" stroke-width="1" opacity="1" d="M 141.5 95 Q 143.5 94.5 144 95.5 Q 143.5 96.5 141.5 96 Q 140.5 95.5 141.5 95 Z " /><path fill="rgb(138,38,35)" stroke="rgb(138,38,35)" stroke-width="1" opacity="1" d="M 368.5 95 Q 370.5 94.5 371 95.5 Q 370.5 96.5 368.5 96 Q 367.5 95.5 368.5 95 Z " /><path fill="rgb(138,38,35)" stroke="rgb(138,38,35)" stroke-width="1" opacity="1" d="M 53.5 97 Q 54.8 97.8 54 100.5 Q 53.5 101.5 53 100.5 Q 52.3 97.8 53.5 97 Z " /><path fill="rgb(138,38,35)" stroke="rgb(138,38,35)" stroke-width="1" opacity="1" d="M 328.5 99 Q 331 100 329.5 101 Q 327 100 328.5 99 Z " /><path fill="rgb(138,38,35)" stroke="rgb(138,38,35)" stroke-width="1" opacity="1" d="M 182.5 100 Q 184 101 181.5 102 Q 180 101 182.5 100 Z " /><path fill="rgb(138,38,35)" stroke="rgb(138,38,35)" stroke-width="1" opacity="1" d="M 458.5 100 Q 459.8 100.8 459 103.5 Q 458.5 104.5 458 103.5 Q 457.3 100.8 458.5 100 Z " /><path fill="rgb(138,38,35)" stroke="rgb(138,38,35)" stroke-width="1" opacity="1" d="M 179.5 102 Q 181 103 178.5 104 Q 177 103 179.5 102 Z " /><path fill="rgb(138,38,35)" stroke="rgb(138,38,35)" stroke-width="1" opacity="1" d="M 176.5 104 Q 178 105 175.5 106 Q 174 105 176.5 104 Z " /><path fill="rgb(138,38,35)" stroke="rgb(138,38,35)" stroke-width="1" opacity="1" d="M 54.5 110 Q 55.5 110.5 55 112.5 Q 54.5 113.5 54 112.5 Q 53.5 110.5 54.5 110 Z " /><path fill="rgb(138,38,35)" stroke="rgb(138,38,35)" stroke-width="1" opacity="1" d="M 139.5 115 Q 142.3 114.3 143 115.5 Q 142.3 116.8 139.5 116 Q 138.5 115.5 139.5 115 Z " /><path fill="rgb(138,38,35)" stroke="rgb(138,38,35)" stroke-width="1" opacity="1" d="M 149.5 115 Q 151.5 114.5 152 115.5 Q 151.5 116.5 149.5 116 Q 148.5 115.5 149.5 115 Z " /><path fill="rgb(138,38,35)" stroke="rgb(138,38,35)" stroke-width="1" opacity="1" d="M 360.5 115 Q 362.5 114.5 363 115.5 Q 362.5 116.5 360.5 116 Q 359.5 115.5 360.5 115 Z " /><path fill="rgb(138,38,35)" stroke="rgb(138,38,35)" stroke-width="1" opacity="1" d="M 370.5 115 Q 372.5 114.5 373 115.5 Q 372.5 116.5 370.5 116 Q 369.5 115.5 370.5 115 Z " /><path fill="rgb(138,38,35)" stroke="rgb(138,38,35)" stroke-width="1" opacity="1" d="M 440.5 138 Q 443 139 441.5 140 Q 439 139 440.5 138 Z " /><path fill="rgb(138,38,35)" stroke="rgb(138,38,35)" stroke-width="1" opacity="1" d="M 70.5 139 Q 72 140 69.5 141 Q 68 140 70.5 139 Z " /><path fill="rgb(138,38,35)" stroke="rgb(138,38,35)" stroke-width="1" opacity="1" d="M 91.5 142 Q 92.5 142.5 92 144.5 Q 91.5 145.5 91 144.5 Q 90.5 142.5 91.5 142 Z " /><path fill="rgb(138,38,35)" stroke="rgb(138,38,35)" stroke-width="1" opacity="1" d="M 447.5 144 L 451 147.5 L 450.5 148 L 447 144.5 L 447.5 144 Z " /><path fill="rgb(138,38,35)" stroke="rgb(138,38,35)" stroke-width="1" opacity="1" d="M 62.5 146 Q 64 147 61.5 148 Q 60 147 62.5 146 Z " /><path fill="rgb(138,38,35)" stroke="rgb(138,38,35)" stroke-width="1" opacity="1" d="M 89.5 149 Q 91.5 150.5 87.5 152 L 87 151.5 L 89.5 149 Z " /><path fill="rgb(138,38,35)" stroke="rgb(138,38,35)" stroke-width="1" opacity="1" d="M 423.5 150 Q 426 151 424.5 152 Q 422 151 423.5 150 Z " /><path fill="rgb(138,38,35)" stroke="rgb(138,38,35)" stroke-width="1" opacity="1" d="M 427.5 153 L 430 155.5 L 429.5 156 L 427 153.5 L 427.5 153 Z " /><path fill="rgb(138,38,35)" stroke="rgb(138,38,35)" stroke-width="1" opacity="1" d="M 83.5 154 Q 85.5 155.5 81.5 157 Q 79.5 155.5 83.5 154 Z " /><path fill="rgb(138,38,35)" stroke="rgb(138,38,35)" stroke-width="1" opacity="1" d="M 434.5 159 L 445 169.5 L 444.5 170 L 434 159.5 L 434.5 159 Z " /><path fill="rgb(138,38,35)" stroke="rgb(138,38,35)" stroke-width="1" opacity="1" d="M 75.5 161 L 76 161.5 L 68.5 169 L 68 168.5 L 75.5 161 Z " /><path fill="rgb(138,38,35)" stroke="rgb(138,38,35)" stroke-width="1" opacity="1" d="M 64.5 173 Q 66 174 63.5 175 Q 62 174 64.5 173 Z " /><path fill="rgb(138,38,35)" stroke="rgb(138,38,35)" stroke-width="1" opacity="1" d="M 448.5 174 Q 451 175 449.5 176 Q 447 175 448.5 174 Z " /><path fill="rgb(138,38,35)" stroke="rgb(138,38,35)" stroke-width="1" opacity="1" d="M 155.5 225 Q 160.5 223.5 162 225.5 Q 160.5 227.5 155.5 226 Q 154.5 225.5 155.5 225 Z " /><path fill="rgb(138,38,35)" stroke="rgb(138,38,35)" stroke-width="1" opacity="1" d="M 351.5 225 L 358.5 225 L 359 225.5 L 358.5 226 L 351.5 226 Q 350.5 225.5 351.5 225 Z " /><path fill="rgb(138,38,35)" stroke="rgb(138,38,35)" stroke-width="1" opacity="1" d="M 342.5 228 Q 344 229 341.5 230 Q 340 229 342.5 228 Z " /><path fill="rgb(138,38,35)" stroke="rgb(138,38,35)" stroke-width="1" opacity="1" d="M 339.5 230 Q 341 231 338.5 232 Q 337 231 339.5 230 Z " /><path fill="rgb(138,38,35)" stroke="rgb(138,38,35)" stroke-width="1" opacity="1" d="M 370.5 230 Q 373 231 371.5 232 Q 369 231 370.5 230 Z " /><path fill="rgb(138,38,35)" stroke="rgb(138,38,35)" stroke-width="1" opacity="1" d="M 140.5 232 Q 142 233 139.5 234 Q 138 233 140.5 232 Z " /><path fill="rgb(138,38,35)" stroke="rgb(138,38,35)" stroke-width="1" opacity="1" d="M 176.5 232 Q 179 233 177.5 234 Q 175 233 176.5 232 Z " /><path fill="rgb(138,38,35)" stroke="rgb(138,38,35)" stroke-width="1" opacity="1" d="M 336.5 233 Q 338.5 234.5 334.5 236 L 334 235.5 L 336.5 233 Z " /><path fill="rgb(138,38,35)" stroke="rgb(138,38,35)" stroke-width="1" opacity="1" d="M 375.5 235 Q 378 236 376.5 237 Q 374 236 375.5 235 Z " /><path fill="rgb(138,38,35)" stroke="rgb(138,38,35)" stroke-width="1" opacity="1" d="M 132.5 247 L 133 247.5 L 133 255.5 Q 132.5 256.5 132 255.5 L 132 247.5 L 132.5 247 Z " /><path fill="rgb(138,38,35)" stroke="rgb(138,38,35)" stroke-width="1" opacity="1" d="M 184.5 247 L 185 247.5 L 185 255.5 Q 184.5 256.5 184 255.5 L 184 247.5 L 184.5 247 Z " /><path fill="rgb(138,38,35)" stroke="rgb(138,38,35)" stroke-width="1" opacity="1" d="M 333.5 266 Q 336 267 334.5 268 Q 332 267 333.5 266 Z " /><path fill="rgb(138,38,35)" stroke="rgb(138,38,35)" stroke-width="1" opacity="1" d="M 484.5 267 Q 485.5 267.5 485 269.5 Q 484.5 270.5 484 269.5 Q 483.5 267.5 484.5 267 Z " /><path fill="rgb(138,38,35)" stroke="rgb(138,38,35)" stroke-width="1" opacity="1" d="M 138.5 268 L 142 271.5 L 141.5 272 L 138 268.5 L 138.5 268 Z " /><path fill="rgb(138,38,35)" stroke="rgb(138,38,35)" stroke-width="1" opacity="1" d="M 178.5 268 L 179 268.5 L 174.5 273 L 174 272.5 L 178.5 268 Z " /><path fill="rgb(138,38,35)" stroke="rgb(138,38,35)" stroke-width="1" opacity="1" d="M 339.5 272 Q 342 273 340.5 274 Q 338 273 339.5 272 Z " /><path fill="rgb(138,38,35)" stroke="rgb(138,38,35)" stroke-width="1" opacity="1" d="M 370.5 272 Q 372 273 369.5 274 Q 368 273 370.5 272 Z " /><path fill="rgb(138,38,35)" stroke="rgb(138,38,35)" stroke-width="1" opacity="1" d="M 172.5 273 Q 174 274 171.5 275 Q 170 274 172.5 273 Z " /><path fill="rgb(138,38,35)" stroke="rgb(138,38,35)" stroke-width="1" opacity="1" d="M 154.5 277 Q 156.5 276.5 157 277.5 Q 156.5 278.5 154.5 278 Q 153.5 277.5 154.5 277 Z " /><path fill="rgb(138,38,35)" stroke="rgb(138,38,35)" stroke-width="1" opacity="1" d="M 159.5 277 Q 163 276 164 277.5 Q 163 279 159.5 278 Q 158.5 277.5 159.5 277 Z " /><path fill="rgb(138,38,35)" stroke="rgb(138,38,35)" stroke-width="1" opacity="1" d="M 350.5 277 Q 353.3 276.3 354 277.5 Q 353.3 278.8 350.5 278 Q 349.5 277.5 350.5 277 Z " /><path fill="rgb(138,38,35)" stroke="rgb(138,38,35)" stroke-width="1" opacity="1" d="M 355.5 277 Q 359 276 360 277.5 Q 359 279 355.5 278 Q 354.5 277.5 355.5 277 Z " /><path fill="rgb(138,38,35)" stroke="rgb(138,38,35)" stroke-width="1" opacity="1" d="M 25.5 278 Q 26.5 278.5 26 280.5 Q 25.5 281.5 25 280.5 Q 24.5 278.5 25.5 278 Z " /><path fill="rgb(138,38,35)" stroke="rgb(138,38,35)" stroke-width="1" opacity="1" d="M 486.5 278 Q 487.5 278.5 487 280.5 Q 486.5 281.5 486 280.5 Q 485.5 278.5 486.5 278 Z " /><path fill="rgb(138,38,35)" stroke="rgb(138,38,35)" stroke-width="1" opacity="1" d="M 24.5 284 Q 25.5 284.5 25 286.5 Q 24.5 287.5 24 286.5 Q 23.5 284.5 24.5 284 Z " /><path fill="rgb(138,38,35)" stroke="rgb(138,38,35)" stroke-width="1" opacity="1" d="M 487.5 284 Q 488.5 284.5 488 286.5 Q 487.5 287.5 487 286.5 Q 486.5 284.5 487.5 284 Z " /><path fill="rgb(138,38,35)" stroke="rgb(138,38,35)" stroke-width="1" opacity="1" d="M 251.5 290 L 262.5 290 L 263 290.5 L 262.5 291 L 251.5 291 Q 250.5 290.5 251.5 290 Z " /><path fill="rgb(138,38,35)" stroke="rgb(138,38,35)" stroke-width="1" opacity="1" d="M 488.5 290 Q 489.8 290.8 489 293.5 Q 488.5 294.5 488 293.5 Q 487.3 290.8 488.5 290 Z " /><path fill="rgb(138,38,35)" stroke="rgb(138,38,35)" stroke-width="1" opacity="1" d="M 23.5 291 Q 24.5 291.5 24 293.5 Q 23.5 294.5 23 293.5 Q 22.5 291.5 23.5 291 Z " /><path fill="rgb(138,38,35)" stroke="rgb(138,38,35)" stroke-width="1" opacity="1" d="M 243.5 291 Q 245.5 290.5 246 291.5 Q 245.5 292.5 243.5 292 Q 242.5 291.5 243.5 291 Z " /><path fill="rgb(138,38,35)" stroke="rgb(138,38,35)" stroke-width="1" opacity="1" d="M 22.5 298 Q 23.8 298.8 23 301.5 Q 22.5 302.5 22 301.5 Q 21.3 298.8 22.5 298 Z " /><path fill="rgb(138,38,35)" stroke="rgb(138,38,35)" stroke-width="1" opacity="1" d="M 489.5 298 Q 490.5 298.5 490 300.5 Q 489.5 301.5 489 300.5 Q 488.5 298.5 489.5 298 Z " /><path fill="rgb(138,38,35)" stroke="rgb(138,38,35)" stroke-width="1" opacity="1" d="M 295.5 302 Q 299.5 303.5 297.5 305 Q 293.5 303.5 295.5 302 Z " /><path fill="rgb(138,38,35)" stroke="rgb(138,38,35)" stroke-width="1" opacity="1" d="M 214.5 305 Q 216 306 213.5 307 Q 212 306 214.5 305 Z " /><path fill="rgb(138,38,35)" stroke="rgb(138,38,35)" stroke-width="1" opacity="1" d="M 490.5 306 Q 492 307 491 310.5 Q 490.5 311.5 490 310.5 Q 489 307 490.5 306 Z " /><path fill="rgb(138,38,35)" stroke="rgb(138,38,35)" stroke-width="1" opacity="1" d="M 21.5 307 Q 23 308 22 311.5 Q 21.5 312.5 21 311.5 Q 20 308 21.5 307 Z " /><path fill="rgb(138,38,35)" stroke="rgb(138,38,35)" stroke-width="1" opacity="1" d="M 300.5 307 Q 304.5 308.5 302.5 310 Q 298.5 308.5 300.5 307 Z " /><path fill="rgb(138,38,35)" stroke="rgb(138,38,35)" stroke-width="1" opacity="1" d="M 491.5 318 L 492 318.5 L 492 325.5 Q 491.5 326.5 491 325.5 L 491 318.5 L 491.5 318 Z " /><path fill="rgb(138,38,35)" stroke="rgb(138,38,35)" stroke-width="1" opacity="1" d="M 20.5 319 L 21 319.5 L 21 327.5 Q 20.5 328.5 20 327.5 L 20 319.5 L 20.5 319 Z " /><path fill="rgb(138,38,35)" stroke="rgb(138,38,35)" stroke-width="1" opacity="1" d="M 308.5 323 L 309 323.5 L 309 330.5 Q 308.5 331.5 308 330.5 L 308 323.5 L 308.5 323 Z " /><path fill="rgb(138,38,35)" stroke="rgb(138,38,35)" stroke-width="1" opacity="1" d="M 205.5 331 Q 206.5 331.5 206 333.5 Q 205.5 334.5 205 333.5 Q 204.5 331.5 205.5 331 Z " /><path fill="rgb(138,38,35)" stroke="rgb(138,38,35)" stroke-width="1" opacity="1" d="M 20.5 344 Q 21.5 344.5 21 346.5 Q 20.5 347.5 20 346.5 Q 19.5 344.5 20.5 344 Z " /><path fill="rgb(138,38,35)" stroke="rgb(138,38,35)" stroke-width="1" opacity="1" d="M 491.5 345 Q 492.5 345.5 492 347.5 Q 491.5 348.5 491 347.5 Q 490.5 345.5 491.5 345 Z " /><path fill="rgb(138,38,35)" stroke="rgb(138,38,35)" stroke-width="1" opacity="1" d="M 215.5 352 Q 218 353 216.5 354 Q 214 353 215.5 352 Z " /><path fill="rgb(138,38,35)" stroke="rgb(138,38,35)" stroke-width="1" opacity="1" d="M 221.5 358 Q 224 359 222.5 360 Q 220 359 221.5 358 Z " /><path fill="rgb(138,38,35)" stroke="rgb(138,38,35)" stroke-width="1" opacity="1" d="M 246.5 373 Q 248.5 374.5 244.5 376 L 244 375.5 L 246.5 373 Z " /><path fill="rgb(138,38,35)" stroke="rgb(138,38,35)" stroke-width="1" opacity="1" d="M 242.5 377 Q 244.5 378.5 240.5 380 L 240 379.5 L 242.5 377 Z " /><path fill="rgb(138,38,35)" stroke="rgb(138,38,35)" stroke-width="1" opacity="1" d="M 274.5 380 Q 277 381 275.5 382 Q 273 381 274.5 380 Z " /><path fill="rgb(138,38,35)" stroke="rgb(138,38,35)" stroke-width="1" opacity="1" d="M 256.5 392 Q 266.6 400.9 279.5 407 Q 285.6 410.4 294.5 411 L 295.5 412 L 302.5 412 L 303.5 413 Q 307.7 411.7 309 413.5 Q 303.7 422.2 295.5 428 Q 294.1 430.6 289.5 430 Q 276.5 417 250.5 417 Q 232.9 420.4 222 430.5 Q 223.7 431.2 222.5 432 Q 212.7 426.3 206 417.5 Q 206.2 413.7 203 413.5 L 203.5 413 L 210.5 413 L 211.5 412 L 217.5 412 L 218.5 411 L 222.5 411 L 223.5 410 L 225.5 410 Q 227.2 407.7 231.5 408 Q 246.1 402.1 256.5 392 Z " /><path fill="rgb(138,38,35)" stroke="rgb(138,38,35)" stroke-width="1" opacity="1" d="M 315.5 392 Q 317.5 391.5 318 392.5 Q 317.5 393.5 315.5 393 Q 314.5 392.5 315.5 392 Z " /><path fill="rgb(138,38,35)" stroke="rgb(138,38,35)" stroke-width="1" opacity="1" d="M 43.5 395 Q 46 396 44.5 397 Q 42 396 43.5 395 Z " /><path fill="rgb(138,38,35)" stroke="rgb(138,38,35)" stroke-width="1" opacity="1" d="M 468.5 395 Q 470 396 467.5 397 Q 466 396 468.5 395 Z " /><path fill="rgb(138,38,35)" stroke="rgb(138,38,35)" stroke-width="1" opacity="1" d="M 46.5 399 Q 49 400 47.5 401 Q 45 400 46.5 399 Z " /><path fill="rgb(138,38,35)" stroke="rgb(138,38,35)" stroke-width="1" opacity="1" d="M 465.5 399 Q 467 400 464.5 401 Q 463 400 465.5 399 Z " /><path fill="rgb(138,38,35)" stroke="rgb(138,38,35)" stroke-width="1" opacity="1" d="M 167.5 402 L 170 404.5 L 169.5 405 Q 165.5 403.5 167.5 402 Z " /><path fill="rgb(138,38,35)" stroke="rgb(138,38,35)" stroke-width="1" opacity="1" d="M 51.5 405 Q 54 406 52.5 407 Q 50 406 51.5 405 Z " /><path fill="rgb(138,38,35)" stroke="rgb(138,38,35)" stroke-width="1" opacity="1" d="M 460.5 405 Q 462 406 459.5 407 Q 458 406 460.5 405 Z " /><path fill="rgb(138,38,35)" stroke="rgb(138,38,35)" stroke-width="1" opacity="1" d="M 57.5 412 L 71 425.5 L 70.5 426 L 57 412.5 L 57.5 412 Z " /><path fill="rgb(138,38,35)" stroke="rgb(138,38,35)" stroke-width="1" opacity="1" d="M 454.5 412 L 455 412.5 L 441.5 426 L 441 425.5 L 454.5 412 Z " /><path fill="rgb(138,38,35)" stroke="rgb(138,38,35)" stroke-width="1" opacity="1" d="M 76.5 430 Q 80.5 431.5 78.5 433 Q 74.5 431.5 76.5 430 Z " /><path fill="rgb(138,38,35)" stroke="rgb(138,38,35)" stroke-width="1" opacity="1" d="M 435.5 430 Q 437.5 431.5 433.5 433 L 433 432.5 L 435.5 430 Z " /><path fill="rgb(138,38,35)" stroke="rgb(138,38,35)" stroke-width="1" opacity="1" d="M 194.5 434 L 200 439.5 L 199.5 440 L 194 434.5 L 194.5 434 Z " /><path fill="rgb(138,38,35)" stroke="rgb(138,38,35)" stroke-width="1" opacity="1" d="M 317.5 434 L 318 434.5 L 313.5 439 L 313 438.5 L 317.5 434 Z " /><path fill="rgb(138,38,35)" stroke="rgb(138,38,35)" stroke-width="1" opacity="1" d="M 82.5 435 Q 85 436 83.5 437 Q 81 436 82.5 435 Z " /><path fill="rgb(138,38,35)" stroke="rgb(138,38,35)" stroke-width="1" opacity="1" d="M 429.5 435 Q 431 436 428.5 437 Q 427 436 429.5 435 Z " /><path fill="rgb(138,38,35)" stroke="rgb(138,38,35)" stroke-width="1" opacity="1" d="M 86.5 438 Q 89 439 87.5 440 Q 85 439 86.5 438 Z " /><path fill="rgb(138,38,35)" stroke="rgb(138,38,35)" stroke-width="1" opacity="1" d="M 244.5 438 Q 247.3 437.3 248 438.5 Q 247.3 439.8 244.5 439 Q 243.5 438.5 244.5 438 Z " /><path fill="rgb(138,38,35)" stroke="rgb(138,38,35)" stroke-width="1" opacity="1" d="M 265.5 438 Q 268.3 437.3 269 438.5 Q 268.3 439.8 265.5 439 Q 264.5 438.5 265.5 438 Z " /><path fill="rgb(138,38,35)" stroke="rgb(138,38,35)" stroke-width="1" opacity="1" d="M 90.5 441 Q 93 442 91.5 443 Q 89 442 90.5 441 Z " /><path fill="rgb(138,38,35)" stroke="rgb(138,38,35)" stroke-width="1" opacity="1" d="M 203.5 442 Q 206 443 204.5 444 Q 202 443 203.5 442 Z " /><path fill="rgb(138,38,35)" stroke="rgb(138,38,35)" stroke-width="1" opacity="1" d="M 308.5 442 Q 310 443 307.5 444 Q 306 443 308.5 442 Z " /><path fill="rgb(138,38,35)" stroke="rgb(138,38,35)" stroke-width="1" opacity="1" d="M 245.5 458 Q 247.5 457.5 248 458.5 Q 247.5 459.5 245.5 459 Q 244.5 458.5 245.5 458 Z " /><path fill="rgb(138,38,35)" stroke="rgb(138,38,35)" stroke-width="1" opacity="1" d="M 264.5 458 Q 266.5 457.5 267 458.5 Q 266.5 459.5 264.5 459 Q 263.5 458.5 264.5 458 Z " /><path fill="rgb(138,38,35)" stroke="rgb(138,38,35)" stroke-width="1" opacity="1" d="M 213.5 489 Q 215.5 488.5 216 489.5 Q 215.5 490.5 213.5 490 Q 212.5 489.5 213.5 489 Z " /><path fill="rgb(138,38,35)" stroke="rgb(138,38,35)" stroke-width="1" opacity="1" d="M 296.5 489 Q 298.5 488.5 299 489.5 Q 298.5 490.5 296.5 490 Q 295.5 489.5 296.5 489 Z " /><path fill="rgb(138,38,35)" stroke="rgb(138,38,35)" stroke-width="1" opacity="1" d="M 222.5 490 Q 224.5 489.5 225 490.5 Q 224.5 491.5 222.5 491 Q 221.5 490.5 222.5 490 Z " /><path fill="rgb(138,38,35)" stroke="rgb(138,38,35)" stroke-width="1" opacity="1" d="M 287.5 490 Q 289.5 489.5 290 490.5 Q 289.5 491.5 287.5 491 Q 286.5 490.5 287.5 490 Z " /><path fill="rgb(138,38,35)" stroke="rgb(138,38,35)" stroke-width="1" opacity="1" d="M 233.5 491 Q 237.7 489.7 239 491.5 Q 237.7 493.2 233.5 492 Q 232.5 491.5 233.5 491 Z " /><path fill="rgb(138,38,35)" stroke="rgb(138,38,35)" stroke-width="1" opacity="1" d="M 273.5 491 Q 277.7 489.7 279 491.5 Q 277.7 493.2 273.5 492 Q 272.5 491.5 273.5 491 Z " /><path fill="rgb(0,0,0)" stroke="rgb(0,0,0)" stroke-width="1" opacity="0.611764705882353" d="M 63.5 0 Q 65.5 -0.5 66 0.5 Q 65.5 1.5 63.5 1 Q 62.5 0.5 63.5 0 Z " /><path fill="rgb(0,0,0)" stroke="rgb(0,0,0)" stroke-width="1" opacity="0.611764705882353" d="M 73.5 0 Q 75.5 -0.5 76 0.5 Q 75.5 1.5 73.5 1 Q 72.5 0.5 73.5 0 Z " /><path fill="rgb(0,0,0)" stroke="rgb(0,0,0)" stroke-width="1" opacity="0.611764705882353" d="M 436.5 0 Q 438.5 -0.5 439 0.5 Q 438.5 1.5 436.5 1 Q 435.5 0.5 436.5 0 Z " /><path fill="rgb(0,0,0)" stroke="rgb(0,0,0)" stroke-width="1" opacity="0.611764705882353" d="M 446.5 0 Q 448.5 -0.5 449 0.5 Q 448.5 1.5 446.5 1 Q 445.5 0.5 446.5 0 Z " /><path fill="rgb(0,0,0)" stroke="rgb(0,0,0)" stroke-width="1" opacity="0.611764705882353" d="M 50.5 5 Q 52 6 49.5 7 Q 48 6 50.5 5 Z " /><path fill="rgb(0,0,0)" stroke="rgb(0,0,0)" stroke-width="1" opacity="0.611764705882353" d="M 461.5 5 Q 464 6 462.5 7 Q 460 6 461.5 5 Z " /><path fill="rgb(0,0,0)" stroke="rgb(0,0,0)" stroke-width="1" opacity="0.611764705882353" d="M 46.5 8 L 47 8.5 L 43.5 12 L 43 11.5 L 46.5 8 Z " /><path fill="rgb(0,0,0)" stroke="rgb(0,0,0)" stroke-width="1" opacity="0.611764705882353" d="M 465.5 8 L 469 11.5 L 468.5 12 L 465 8.5 L 465.5 8 Z " /><path fill="rgb(0,0,0)" stroke="rgb(0,0,0)" stroke-width="1" opacity="0.611764705882353" d="M 35.5 26 Q 36.5 26.5 36 28.5 Q 35.5 29.5 35 28.5 Q 34.5 26.5 35.5 26 Z " /><path fill="rgb(0,0,0)" stroke="rgb(0,0,0)" stroke-width="1" opacity="0.611764705882353" d="M 476.5 26 Q 477.5 26.5 477 28.5 Q 476.5 29.5 476 28.5 Q 475.5 26.5 476.5 26 Z " /><path fill="rgb(0,0,0)" stroke="rgb(0,0,0)" stroke-width="1" opacity="0.611764705882353" d="M 34.5 33 Q 36 34 35 37.5 Q 34.5 38.5 34 37.5 Q 33 34 34.5 33 Z " /><path fill="rgb(0,0,0)" stroke="rgb(0,0,0)" stroke-width="1" opacity="0.611764705882353" d="M 157.5 33 Q 160 34 158.5 35 Q 156 34 157.5 33 Z " /><path fill="rgb(0,0,0)" stroke="rgb(0,0,0)" stroke-width="1" opacity="0.611764705882353" d="M 354.5 33 Q 356 34 353.5 35 Q 352 34 354.5 33 Z " /><path fill="rgb(0,0,0)" stroke="rgb(0,0,0)" stroke-width="1" opacity="0.611764705882353" d="M 477.5 33 Q 479 34 478 37.5 Q 477.5 38.5 477 37.5 Q 476 34 477.5 33 Z " /><path fill="rgb(0,0,0)" stroke="rgb(0,0,0)" stroke-width="1" opacity="0.611764705882353" d="M 172.5 43 Q 175 44 173.5 45 Q 171 44 172.5 43 Z " /><path fill="rgb(0,0,0)" stroke="rgb(0,0,0)" stroke-width="1" opacity="0.611764705882353" d="M 339.5 43 Q 341 44 338.5 45 Q 337 44 339.5 43 Z " /><path fill="rgb(0,0,0)" stroke="rgb(0,0,0)" stroke-width="1" opacity="0.611764705882353" d="M 33.5 45 L 34 45.5 L 34 53.5 Q 33.5 54.5 33 53.5 L 33 45.5 L 33.5 45 Z " /><path fill="rgb(0,0,0)" stroke="rgb(0,0,0)" stroke-width="1" opacity="0.611764705882353" d="M 478.5 45 L 479 45.5 L 479 53.5 Q 478.5 54.5 478 53.5 L 478 45.5 L 478.5 45 Z " /><path fill="rgb(0,0,0)" stroke="rgb(0,0,0)" stroke-width="1" opacity="0.611764705882353" d="M 176.5 46 Q 179 47 177.5 48 Q 175 47 176.5 46 Z " /><path fill="rgb(0,0,0)" stroke="rgb(0,0,0)" stroke-width="1" opacity="0.611764705882353" d="M 335.5 46 Q 337 47 334.5 48 Q 333 47 335.5 46 Z " /><path fill="rgb(0,0,0)" stroke="rgb(0,0,0)" stroke-width="1" opacity="0.611764705882353" d="M 180.5 49 Q 183 50 181.5 51 Q 179 50 180.5 49 Z " /><path fill="rgb(0,0,0)" stroke="rgb(0,0,0)" stroke-width="1" opacity="0.611764705882353" d="M 331.5 49 Q 333 50 330.5 51 Q 329 50 331.5 49 Z " /><path fill="rgb(0,0,0)" stroke="rgb(0,0,0)" stroke-width="1" opacity="0.611764705882353" d="M 185.5 53 L 189 56.5 L 188.5 57 L 185 53.5 L 185.5 53 Z " /><path fill="rgb(0,0,0)" stroke="rgb(0,0,0)" stroke-width="1" opacity="0.611764705882353" d="M 326.5 53 L 327 53.5 L 323.5 57 L 323 56.5 L 326.5 53 Z " /><path fill="rgb(0,0,0)" stroke="rgb(0,0,0)" stroke-width="1" opacity="0.611764705882353" d="M 253.5 56 Q 257.7 54.7 259 56.5 Q 257.7 58.2 253.5 57 Q 252.5 56.5 253.5 56 Z " /><path fill="rgb(0,0,0)" stroke="rgb(0,0,0)" stroke-width="1" opacity="0.611764705882353" d="M 231.5 57 Q 236.5 55.5 238 57.5 Q 236.5 59.5 231.5 58 Q 230.5 57.5 231.5 57 Z " /><path fill="rgb(0,0,0)" stroke="rgb(0,0,0)" stroke-width="1" opacity="0.611764705882353" d="M 274.5 57 Q 279.5 55.5 281 57.5 Q 279.5 59.5 274.5 58 Q 273.5 57.5 274.5 57 Z " /><path fill="rgb(0,0,0)" stroke="rgb(0,0,0)" stroke-width="1" opacity="0.611764705882353" d="M 221.5 58 Q 224.3 57.3 225 58.5 Q 224.3 59.8 221.5 59 Q 220.5 58.5 221.5 58 Z " /><path fill="rgb(0,0,0)" stroke="rgb(0,0,0)" stroke-width="1" opacity="0.611764705882353" d="M 287.5 58 Q 290.3 57.3 291 58.5 Q 290.3 59.8 287.5 59 Q 286.5 58.5 287.5 58 Z " /><path fill="rgb(0,0,0)" stroke="rgb(0,0,0)" stroke-width="1" opacity="0.611764705882353" d="M 214.5 59 Q 216.5 58.5 217 59.5 Q 216.5 60.5 214.5 60 Q 213.5 59.5 214.5 59 Z " /><path fill="rgb(0,0,0)" stroke="rgb(0,0,0)" stroke-width="1" opacity="0.611764705882353" d="M 296.5 59 Q 298.5 58.5 299 59.5 Q 298.5 60.5 296.5 60 Q 295.5 59.5 296.5 59 Z " /><path fill="rgb(0,0,0)" stroke="rgb(0,0,0)" stroke-width="1" opacity="0.611764705882353" d="M 207.5 60 Q 209.5 59.5 210 60.5 Q 209.5 61.5 207.5 61 Q 206.5 60.5 207.5 60 Z " /><path fill="rgb(0,0,0)" stroke="rgb(0,0,0)" stroke-width="1" opacity="0.611764705882353" d="M 302.5 60 Q 304.5 59.5 305 60.5 Q 304.5 61.5 302.5 61 Q 301.5 60.5 302.5 60 Z " /><path fill="rgb(0,0,0)" stroke="rgb(0,0,0)" stroke-width="1" opacity="0.611764705882353" d="M 201.5 61 Q 203.5 60.5 204 61.5 Q 203.5 62.5 201.5 62 Q 200.5 61.5 201.5 61 Z " /><path fill="rgb(0,0,0)" stroke="rgb(0,0,0)" stroke-width="1" opacity="0.611764705882353" d="M 308.5 61 Q 310.5 60.5 311 61.5 Q 310.5 62.5 308.5 62 Q 307.5 61.5 308.5 61 Z " /><path fill="rgb(0,0,0)" stroke="rgb(0,0,0)" stroke-width="1" opacity="0.611764705882353" d="M 195.5 62 Q 197.5 61.5 198 62.5 Q 197.5 63.5 195.5 63 Q 194.5 62.5 195.5 62 Z " /><path fill="rgb(0,0,0)" stroke="rgb(0,0,0)" stroke-width="1" opacity="0.611764705882353" d="M 314.5 62 Q 316.5 61.5 317 62.5 Q 316.5 63.5 314.5 63 Q 313.5 62.5 314.5 62 Z " /><path fill="rgb(0,0,0)" stroke="rgb(0,0,0)" stroke-width="1" opacity="0.611764705882353" d="M 32.5 69 L 33 69.5 L 33 78.5 Q 32.5 79.5 32 78.5 L 32 69.5 L 32.5 69 Z " /><path fill="rgb(0,0,0)" stroke="rgb(0,0,0)" stroke-width="1" opacity="0.611764705882353" d="M 479.5 72 Q 481.2 73.2 480 77.5 Q 479.5 78.5 479 77.5 Q 477.8 73.2 479.5 72 Z " /><path fill="rgb(0,0,0)" stroke="rgb(0,0,0)" stroke-width="1" opacity="0.611764705882353" d="M 33.5 96 Q 35.5 97.5 34 102.5 Q 33.5 103.5 33 102.5 Q 31.5 97.5 33.5 96 Z " /><path fill="rgb(0,0,0)" stroke="rgb(0,0,0)" stroke-width="1" opacity="0.611764705882353" d="M 478.5 96 Q 480.5 97.5 479 102.5 Q 478.5 103.5 478 102.5 Q 476.5 97.5 478.5 96 Z " /><path fill="rgb(0,0,0)" stroke="rgb(0,0,0)" stroke-width="1" opacity="0.611764705882353" d="M 34.5 110 Q 35.8 110.8 35 113.5 Q 34.5 114.5 34 113.5 Q 33.3 110.8 34.5 110 Z " /><path fill="rgb(0,0,0)" stroke="rgb(0,0,0)" stroke-width="1" opacity="0.611764705882353" d="M 477.5 110 Q 478.8 110.8 478 113.5 Q 477.5 114.5 477 113.5 Q 476.3 110.8 477.5 110 Z " /><path fill="rgb(0,0,0)" stroke="rgb(0,0,0)" stroke-width="1" opacity="0.611764705882353" d="M 35.5 119 Q 36.8 119.8 36 122.5 Q 35.5 123.5 35 122.5 Q 34.3 119.8 35.5 119 Z " /><path fill="rgb(0,0,0)" stroke="rgb(0,0,0)" stroke-width="1" opacity="0.611764705882353" d="M 476.5 119 Q 477.8 119.8 477 122.5 Q 476.5 123.5 476 122.5 Q 475.3 119.8 476.5 119 Z " /><path fill="rgb(0,0,0)" stroke="rgb(0,0,0)" stroke-width="1" opacity="0.611764705882353" d="M 36.5 127 Q 37.5 127.5 37 129.5 Q 36.5 130.5 36 129.5 Q 35.5 127.5 36.5 127 Z " /><path fill="rgb(0,0,0)" stroke="rgb(0,0,0)" stroke-width="1" opacity="0.611764705882353" d="M 475.5 127 Q 476.5 127.5 476 129.5 Q 475.5 130.5 475 129.5 Q 474.5 127.5 475.5 127 Z " /><path fill="rgb(0,0,0)" stroke="rgb(0,0,0)" stroke-width="1" opacity="0.611764705882353" d="M 37.5 133 Q 38.5 133.5 38 135.5 Q 37.5 136.5 37 135.5 Q 36.5 133.5 37.5 133 Z " /><path fill="rgb(0,0,0)" stroke="rgb(0,0,0)" stroke-width="1" opacity="0.611764705882353" d="M 474.5 133 Q 475.5 133.5 475 135.5 Q 474.5 136.5 474 135.5 Q 473.5 133.5 474.5 133 Z " /><path fill="rgb(0,0,0)" stroke="rgb(0,0,0)" stroke-width="1" opacity="0.611764705882353" d="M 38.5 139 Q 39.5 139.5 39 141.5 Q 38.5 142.5 38 141.5 Q 37.5 139.5 38.5 139 Z " /><path fill="rgb(0,0,0)" stroke="rgb(0,0,0)" stroke-width="1" opacity="0.611764705882353" d="M 473.5 139 Q 474.5 139.5 474 141.5 Q 473.5 142.5 473 141.5 Q 472.5 139.5 473.5 139 Z " /><path fill="rgb(0,0,0)" stroke="rgb(0,0,0)" stroke-width="1" opacity="0.611764705882353" d="M 472.5 144 Q 473.5 144.5 473 146.5 Q 472.5 147.5 472 146.5 Q 471.5 144.5 472.5 144 Z " /><path fill="rgb(0,0,0)" stroke="rgb(0,0,0)" stroke-width="1" opacity="0.611764705882353" d="M 42.5 170 Q 44 171 41.5 172 Q 40 171 42.5 170 Z " /><path fill="rgb(0,0,0)" stroke="rgb(0,0,0)" stroke-width="1" opacity="0.611764705882353" d="M 469.5 170 Q 472 171 470.5 172 Q 468 171 469.5 170 Z " /><path fill="rgb(0,0,0)" stroke="rgb(0,0,0)" stroke-width="1" opacity="0.611764705882353" d="M 505.5 271 Q 506.5 271.5 506 273.5 Q 505.5 274.5 505 273.5 Q 504.5 271.5 505.5 271 Z " /><path fill="rgb(0,0,0)" stroke="rgb(0,0,0)" stroke-width="1" opacity="0.611764705882353" d="M 5.5 276 Q 6.5 276.5 6 278.5 Q 5.5 279.5 5 278.5 Q 4.5 276.5 5.5 276 Z " /><path fill="rgb(0,0,0)" stroke="rgb(0,0,0)" stroke-width="1" opacity="0.611764705882353" d="M 506.5 276 Q 507.5 276.5 507 278.5 Q 506.5 279.5 506 278.5 Q 505.5 276.5 506.5 276 Z " /><path fill="rgb(0,0,0)" stroke="rgb(0,0,0)" stroke-width="1" opacity="0.611764705882353" d="M 4.5 283 Q 5.5 283.5 5 285.5 Q 4.5 286.5 4 285.5 Q 3.5 283.5 4.5 283 Z " /><path fill="rgb(0,0,0)" stroke="rgb(0,0,0)" stroke-width="1" opacity="0.611764705882353" d="M 507.5 283 Q 508.5 283.5 508 285.5 Q 507.5 286.5 507 285.5 Q 506.5 283.5 507.5 283 Z " /><path fill="rgb(0,0,0)" stroke="rgb(0,0,0)" stroke-width="1" opacity="0.611764705882353" d="M 3.5 289 Q 4.8 289.8 4 292.5 Q 3.5 293.5 3 292.5 Q 2.3 289.8 3.5 289 Z " /><path fill="rgb(0,0,0)" stroke="rgb(0,0,0)" stroke-width="1" opacity="0.611764705882353" d="M 508.5 289 Q 509.8 289.8 509 292.5 Q 508.5 293.5 508 292.5 Q 507.3 289.8 508.5 289 Z " /><path fill="rgb(0,0,0)" stroke="rgb(0,0,0)" stroke-width="1" opacity="0.611764705882353" d="M 2.5 297 Q 3.8 297.8 3 300.5 Q 2.5 301.5 2 300.5 Q 1.3 297.8 2.5 297 Z " /><path fill="rgb(0,0,0)" stroke="rgb(0,0,0)" stroke-width="1" opacity="0.611764705882353" d="M 509.5 297 Q 510.8 297.8 510 300.5 Q 509.5 301.5 509 300.5 Q 508.3 297.8 509.5 297 Z " /><path fill="rgb(0,0,0)" stroke="rgb(0,0,0)" stroke-width="1" opacity="0.611764705882353" d="M 1.5 307 Q 3 308 2 311.5 Q 1.5 312.5 1 311.5 Q 0 308 1.5 307 Z " /><path fill="rgb(0,0,0)" stroke="rgb(0,0,0)" stroke-width="1" opacity="0.611764705882353" d="M 510.5 307 Q 512 308 511 311.5 Q 510.5 312.5 510 311.5 Q 509 308 510.5 307 Z " /><path fill="rgb(0,0,0)" stroke="rgb(0,0,0)" stroke-width="1" opacity="0.611764705882353" d="M 0.5 319 L 1 319.5 L 1 328.5 Q 0.5 329.5 0 328.5 L 0 319.5 L 0.5 319 Z " /><path fill="rgb(0,0,0)" stroke="rgb(0,0,0)" stroke-width="1" opacity="0.611764705882353" d="M 511.5 319 L 512 319.5 L 512 328.5 Q 511.5 329.5 511 328.5 L 511 319.5 L 511.5 319 Z " /><path fill="rgb(0,0,0)" stroke="rgb(0,0,0)" stroke-width="1" opacity="0.611764705882353" d="M 0.5 345 Q 1.8 345.8 1 348.5 Q 0.5 349.5 0 348.5 Q -0.8 345.8 0.5 345 Z " /><path fill="rgb(0,0,0)" stroke="rgb(0,0,0)" stroke-width="1" opacity="0.611764705882353" d="M 511.5 345 Q 512.5 345.5 512 347.5 Q 511.5 348.5 511 347.5 Q 510.5 345.5 511.5 345 Z " /><path fill="rgb(0,0,0)" stroke="rgb(0,0,0)" stroke-width="1" opacity="0.611764705882353" d="M 17.5 392 Q 20 393 18.5 394 Q 16 393 17.5 392 Z " /><path fill="rgb(0,0,0)" stroke="rgb(0,0,0)" stroke-width="1" opacity="0.611764705882353" d="M 494.5 392 Q 496 393 493.5 394 Q 492 393 494.5 392 Z " /><path fill="rgb(0,0,0)" stroke="rgb(0,0,0)" stroke-width="1" opacity="0.611764705882353" d="M 27.5 407 Q 30 408 28.5 409 Q 26 408 27.5 407 Z " /><path fill="rgb(0,0,0)" stroke="rgb(0,0,0)" stroke-width="1" opacity="0.611764705882353" d="M 484.5 407 Q 486 408 483.5 409 Q 482 408 484.5 407 Z " /><path fill="rgb(0,0,0)" stroke="rgb(0,0,0)" stroke-width="1" opacity="0.611764705882353" d="M 30.5 411 Q 34.5 412.5 32.5 414 Q 28.5 412.5 30.5 411 Z " /><path fill="rgb(0,0,0)" stroke="rgb(0,0,0)" stroke-width="1" opacity="0.611764705882353" d="M 481.5 411 Q 483.5 412.5 479.5 414 L 479 413.5 L 481.5 411 Z " /><path fill="rgb(0,0,0)" stroke="rgb(0,0,0)" stroke-width="1" opacity="0.611764705882353" d="M 34.5 416 Q 38.5 417.5 36.5 419 Q 32.5 417.5 34.5 416 Z " /><path fill="rgb(0,0,0)" stroke="rgb(0,0,0)" stroke-width="1" opacity="0.611764705882353" d="M 477.5 416 Q 479.5 417.5 475.5 419 L 475 418.5 L 477.5 416 Z " /><path fill="rgb(0,0,0)" stroke="rgb(0,0,0)" stroke-width="1" opacity="0.611764705882353" d="M 40.5 423 L 48 430.5 L 47.5 431 L 40 423.5 L 40.5 423 Z " /><path fill="rgb(0,0,0)" stroke="rgb(0,0,0)" stroke-width="1" opacity="0.611764705882353" d="M 471.5 423 L 472 423.5 L 464.5 431 L 464 430.5 L 471.5 423 Z " /><path fill="rgb(0,0,0)" stroke="rgb(0,0,0)" stroke-width="1" opacity="0.611764705882353" d="M 51.5 434 L 59 441.5 L 58.5 442 L 51 434.5 L 51.5 434 Z " /><path fill="rgb(0,0,0)" stroke="rgb(0,0,0)" stroke-width="1" opacity="0.611764705882353" d="M 460.5 434 L 461 434.5 L 453.5 442 L 453 441.5 L 460.5 434 Z " /><path fill="rgb(0,0,0)" stroke="rgb(0,0,0)" stroke-width="1" opacity="0.611764705882353" d="M 63.5 445 L 66 447.5 L 65.5 448 Q 61.5 446.5 63.5 445 Z " /><path fill="rgb(0,0,0)" stroke="rgb(0,0,0)" stroke-width="1" opacity="0.611764705882353" d="M 448.5 445 Q 450.5 446.5 446.5 448 Q 444.5 446.5 448.5 445 Z " /><path fill="rgb(0,0,0)" stroke="rgb(0,0,0)" stroke-width="1" opacity="0.611764705882353" d="M 69.5 450 Q 73.5 451.5 71.5 453 Q 67.5 451.5 69.5 450 Z " /><path fill="rgb(0,0,0)" stroke="rgb(0,0,0)" stroke-width="1" opacity="0.611764705882353" d="M 442.5 450 Q 444.5 451.5 440.5 453 L 440 452.5 L 442.5 450 Z " /><path fill="rgb(0,0,0)" stroke="rgb(0,0,0)" stroke-width="1" opacity="0.611764705882353" d="M 74.5 454 Q 77 455 75.5 456 Q 73 455 74.5 454 Z " /><path fill="rgb(0,0,0)" stroke="rgb(0,0,0)" stroke-width="1" opacity="0.611764705882353" d="M 437.5 454 Q 439 455 436.5 456 Q 435 455 437.5 454 Z " /><path fill="rgb(0,0,0)" stroke="rgb(0,0,0)" stroke-width="1" opacity="0.611764705882353" d="M 78.5 457 Q 81 458 79.5 459 Q 77 458 78.5 457 Z " /><path fill="rgb(0,0,0)" stroke="rgb(0,0,0)" stroke-width="1" opacity="0.611764705882353" d="M 433.5 457 Q 435 458 432.5 459 Q 431 458 433.5 457 Z " /><path fill="rgb(0,0,0)" stroke="rgb(0,0,0)" stroke-width="1" opacity="0.611764705882353" d="M 81.5 459 Q 84 460 82.5 461 Q 80 460 81.5 459 Z " /><path fill="rgb(0,0,0)" stroke="rgb(0,0,0)" stroke-width="1" opacity="0.611764705882353" d="M 430.5 459 Q 432 460 429.5 461 Q 428 460 430.5 459 Z " /><path fill="rgb(0,0,0)" stroke="rgb(0,0,0)" stroke-width="1" opacity="0.611764705882353" d="M 93.5 467 Q 96 468 94.5 469 Q 92 468 93.5 467 Z " /><path fill="rgb(0,0,0)" stroke="rgb(0,0,0)" stroke-width="1" opacity="0.611764705882353" d="M 103.5 473 Q 106 474 104.5 475 Q 102 474 103.5 473 Z " /><path fill="rgb(0,0,0)" stroke="rgb(0,0,0)" stroke-width="1" opacity="0.611764705882353" d="M 188.5 505 Q 190.5 504.5 191 505.5 Q 190.5 506.5 188.5 506 Q 187.5 505.5 188.5 505 Z " /><path fill="rgb(0,0,0)" stroke="rgb(0,0,0)" stroke-width="1" opacity="0.611764705882353" d="M 193.5 506 Q 195.5 505.5 196 506.5 Q 195.5 507.5 193.5 507 Q 192.5 506.5 193.5 506 Z " /><path fill="rgb(0,0,0)" stroke="rgb(0,0,0)" stroke-width="1" opacity="0.611764705882353" d="M 316.5 506 Q 318.5 505.5 319 506.5 Q 318.5 507.5 316.5 507 Q 315.5 506.5 316.5 506 Z " /><path fill="rgb(0,0,0)" stroke="rgb(0,0,0)" stroke-width="1" opacity="0.611764705882353" d="M 199.5 507 Q 201.5 506.5 202 507.5 Q 201.5 508.5 199.5 508 Q 198.5 507.5 199.5 507 Z " /><path fill="rgb(0,0,0)" stroke="rgb(0,0,0)" stroke-width="1" opacity="0.611764705882353" d="M 310.5 507 Q 312.5 506.5 313 507.5 Q 312.5 508.5 310.5 508 Q 309.5 507.5 310.5 507 Z " /><path fill="rgb(0,0,0)" stroke="rgb(0,0,0)" stroke-width="1" opacity="0.611764705882353" d="M 205.5 508 Q 207.5 507.5 208 508.5 Q 207.5 509.5 205.5 509 Q 204.5 508.5 205.5 508 Z " /><path fill="rgb(0,0,0)" stroke="rgb(0,0,0)" stroke-width="1" opacity="0.611764705882353" d="M 304.5 508 Q 306.5 507.5 307 508.5 Q 306.5 509.5 304.5 509 Q 303.5 508.5 304.5 508 Z " /><path fill="rgb(0,0,0)" stroke="rgb(0,0,0)" stroke-width="1" opacity="0.611764705882353" d="M 212.5 509 Q 215.3 508.3 216 509.5 Q 215.3 510.8 212.5 510 Q 211.5 509.5 212.5 509 Z " /><path fill="rgb(0,0,0)" stroke="rgb(0,0,0)" stroke-width="1" opacity="0.611764705882353" d="M 296.5 509 Q 299.3 508.3 300 509.5 Q 299.3 510.8 296.5 510 Q 295.5 509.5 296.5 509 Z " /><path fill="rgb(0,0,0)" stroke="rgb(0,0,0)" stroke-width="1" opacity="0.611764705882353" d="M 221.5 510 Q 225.7 508.7 227 510.5 Q 225.7 512.2 221.5 511 Q 220.5 510.5 221.5 510 Z " /><path fill="rgb(0,0,0)" stroke="rgb(0,0,0)" stroke-width="1" opacity="0.611764705882353" d="M 285.5 510 Q 289.7 508.7 291 510.5 Q 289.7 512.2 285.5 511 Q 284.5 510.5 285.5 510 Z " /><path fill="rgb(0,0,0)" stroke="rgb(0,0,0)" stroke-width="1" opacity="0.611764705882353" d="M 234.5 511 L 243.5 511 L 244 511.5 L 243.5 512 L 234.5 512 Q 233.5 511.5 234.5 511 Z " /><path fill="rgb(0,0,0)" stroke="rgb(0,0,0)" stroke-width="1" opacity="0.611764705882353" d="M 268.5 511 L 277.5 511 L 278 511.5 L 277.5 512 L 268.5 512 Q 267.5 511.5 268.5 511 Z " /><path fill="rgb(241,186,143)" stroke="rgb(241,186,143)" stroke-width="1" opacity="1" d="M 313.5 182 Q 315 183 312.5 184 Q 311 183 313.5 182 Z " /><path fill="rgb(241,186,143)" stroke="rgb(241,186,143)" stroke-width="1" opacity="1" d="M 164.5 184 Q 166 185 163.5 186 Q 162 185 164.5 184 Z " /><path fill="rgb(241,186,143)" stroke="rgb(241,186,143)" stroke-width="1" opacity="1" d="M 161.5 190 Q 163 191 162 194.5 Q 161.5 195.5 161 194.5 Q 160 191 161.5 190 Z " /><path fill="rgb(241,186,143)" stroke="rgb(241,186,143)" stroke-width="1" opacity="1" d="M 346.5 206 L 347 206.5 L 342.5 211 L 342 210.5 L 346.5 206 Z " /><path fill="rgb(241,186,143)" stroke="rgb(241,186,143)" stroke-width="1" opacity="1" d="M 203.5 207 Q 205.5 208.5 201.5 210 L 201 209.5 L 203.5 207 Z " /><path fill="rgb(241,186,143)" stroke="rgb(241,186,143)" stroke-width="1" opacity="1" d="M 122.5 302 L 131.5 302 L 132 302.5 L 131.5 303 L 122.5 303 Q 121.5 302.5 122.5 302 Z " /><path fill="rgb(241,186,143)" stroke="rgb(241,186,143)" stroke-width="1" opacity="1" d="M 380.5 302 L 389.5 302 L 390 302.5 L 389.5 303 L 380.5 303 Q 379.5 302.5 380.5 302 Z " /><path fill="rgb(241,186,143)" stroke="rgb(241,186,143)" stroke-width="1" opacity="1" d="M 57.5 325 Q 59 326 56.5 327 Q 55 326 57.5 325 Z " /><path fill="rgb(241,186,143)" stroke="rgb(241,186,143)" stroke-width="1" opacity="1" d="M 454.5 325 Q 457 326 455.5 327 Q 453 326 454.5 325 Z " /><path fill="rgb(241,186,143)" stroke="rgb(241,186,143)" stroke-width="1" opacity="1" d="M 52.5 329 Q 54 330 51.5 331 Q 50 330 52.5 329 Z " /><path fill="rgb(241,186,143)" stroke="rgb(241,186,143)" stroke-width="1" opacity="1" d="M 459.5 329 Q 462 330 460.5 331 Q 458 330 459.5 329 Z " /><path fill="rgb(241,186,143)" stroke="rgb(241,186,143)" stroke-width="1" opacity="1" d="M 38.5 343 Q 40.5 344.5 36.5 346 Q 34.5 344.5 38.5 343 Z " /><path fill="rgb(241,186,143)" stroke="rgb(241,186,143)" stroke-width="1" opacity="1" d="M 473.5 343 Q 477.5 344.5 475.5 346 Q 471.5 344.5 473.5 343 Z " /><path fill="rgb(241,186,143)" stroke="rgb(241,186,143)" stroke-width="1" opacity="1" d="M 33.5 349 Q 35 350 32.5 351 Q 31 350 33.5 349 Z " /><path fill="rgb(241,186,143)" stroke="rgb(241,186,143)" stroke-width="1" opacity="1" d="M 478.5 349 Q 481 350 479.5 351 Q 477 350 478.5 349 Z " /><path fill="rgb(241,186,143)" stroke="rgb(241,186,143)" stroke-width="1" opacity="1" d="M 481.5 353 Q 484 354 482.5 355 Q 480 354 481.5 353 Z " /><path fill="rgb(241,186,143)" stroke="rgb(241,186,143)" stroke-width="1" opacity="1" d="M 57.5 411 Q 60 412 58.5 413 Q 56 412 57.5 411 Z " /><path fill="rgb(241,186,143)" stroke="rgb(241,186,143)" stroke-width="1" opacity="1" d="M 454.5 411 Q 456.5 412.5 452.5 414 L 452 413.5 L 454.5 411 Z " /><path fill="rgb(241,186,143)" stroke="rgb(241,186,143)" stroke-width="1" opacity="1" d="M 69.5 423 Q 73.5 424.5 71.5 426 Q 67.5 424.5 69.5 423 Z " /><path fill="rgb(241,186,143)" stroke="rgb(241,186,143)" stroke-width="1" opacity="1" d="M 442.5 423 Q 444.5 424.5 440.5 426 L 440 425.5 L 442.5 423 Z " /><path fill="rgb(241,186,143)" stroke="rgb(241,186,143)" stroke-width="1" opacity="1" d="M 78.5 431 Q 81 432 79.5 433 Q 77 432 78.5 431 Z " /><path fill="rgb(241,186,143)" stroke="rgb(241,186,143)" stroke-width="1" opacity="1" d="M 433.5 431 Q 435 432 432.5 433 Q 431 432 433.5 431 Z " /><path fill="rgb(241,186,143)" stroke="rgb(241,186,143)" stroke-width="1" opacity="1" d="M 253.5 491 Q 257.7 489.7 259 491.5 Q 257.7 493.2 253.5 492 Q 252.5 491.5 253.5 491 Z " /><path fill="rgb(242,197,158)" stroke="rgb(242,197,158)" stroke-width="1" opacity="1" d="M 404.5 93 Q 406 94 403.5 95 Q 402 94 404.5 93 Z " /><path fill="rgb(242,197,158)" stroke="rgb(242,197,158)" stroke-width="1" opacity="1" d="M 112.5 98 Q 115 99 113.5 100 Q 111 99 112.5 98 Z " /><path fill="rgb(242,197,158)" stroke="rgb(242,197,158)" stroke-width="1" opacity="1" d="M 311.5 184 Q 313 185 310.5 186 Q 309 185 311.5 184 Z " /><path fill="rgb(242,197,158)" stroke="rgb(242,197,158)" stroke-width="1" opacity="1" d="M 207.5 195 Q 208.8 195.8 208 198.5 Q 207.5 199.5 207 198.5 Q 206.3 195.8 207.5 195 Z " /><path fill="rgb(242,197,158)" stroke="rgb(242,197,158)" stroke-width="1" opacity="1" d="M 50.5 331 Q 52 332 49.5 333 Q 48 332 50.5 331 Z " /><path fill="rgb(242,197,158)" stroke="rgb(242,197,158)" stroke-width="1" opacity="1" d="M 461.5 331 Q 464 332 462.5 333 Q 460 332 461.5 331 Z " /><path fill="rgb(242,197,158)" stroke="rgb(242,197,158)" stroke-width="1" opacity="1" d="M 471.5 341 Q 474 342 472.5 343 Q 470 342 471.5 341 Z " /><path fill="rgb(242,197,158)" stroke="rgb(242,197,158)" stroke-width="1" opacity="1" d="M 472.5 388 L 473 388.5 L 470 391.5 Q 458.7 409.2 443.5 423 Q 403.1 461.6 342.5 480 L 339.5 480 Q 338.2 481.7 335.5 482 Q 327.6 482.1 322.5 485 L 318.5 485 Q 317.5 487 313.5 486 L 312.5 487 Q 307.8 485.8 306.5 488 L 300.5 488 L 299.5 489 L 292.5 489 L 291.5 490 L 281.5 490 L 280.5 491 L 231.5 491 L 230.5 490 L 220.5 490 L 219.5 489 L 212.5 489 Q 211 486.5 205.5 488 L 204.5 487 L 199.5 487 L 198.5 486 Q 189.9 486.1 184.5 483 L 180.5 483 Q 155.9 476.6 134.5 467 Q 90.2 446.8 59 413.5 L 59 412.5 Q 50.2 404.8 44 394.5 L 44.5 394 L 48.5 398 Q 89.4 430.1 144.5 448 L 147.5 448 Q 148.7 449.7 151.5 450 L 154.5 450 Q 155.7 451.7 158.5 452 L 161.5 452 L 162.5 453 L 165.5 453 L 166.5 454 L 169.5 454 L 170.5 455 Q 173.8 454.3 174.5 456 L 178.5 456 L 179.5 457 Q 183.5 456 184.5 458 L 189.5 458 L 190.5 459 L 195.5 459 L 196.5 460 L 202.5 460 L 203.5 461 Q 209.8 459.3 211.5 462 L 220.5 462 L 221.5 463 L 236.5 463 L 237.5 464 L 272.5 464 L 273.5 463 L 288.5 463 L 289.5 462 L 298.5 462 L 299.5 461 L 306.5 461 L 307.5 460 L 313.5 460 L 314.5 459 L 319.5 459 Q 320.8 456.8 325.5 458 L 326.5 457 L 330.5 457 L 331.5 456 Q 334.7 456.8 335.5 455 L 339.5 455 L 340.5 454 L 343.5 454 L 344.5 453 L 347.5 453 L 348.5 452 L 351.5 452 Q 352.3 450.3 355.5 451 L 356.5 450 Q 360.8 450.3 362.5 448 L 365.5 448 L 366.5 447 L 368.5 447 L 369.5 446 L 371.5 446 Q 373.2 443.7 377.5 444 Q 403.2 434.7 425.5 422 Q 451.7 407.7 472.5 388 Z " /><path fill="rgb(181,160,139)" stroke="rgb(181,160,139)" stroke-width="1" opacity="1" d="M 63.5 61 Q 66.3 60.3 67 61.5 Q 66.3 62.8 63.5 62 Q 62.5 61.5 63.5 61 Z " /><path fill="rgb(181,160,139)" stroke="rgb(181,160,139)" stroke-width="1" opacity="1" d="M 445.5 61 Q 449 60 450 61.5 Q 449 63 445.5 62 Q 444.5 61.5 445.5 61 Z " /><path fill="rgb(181,160,139)" stroke="rgb(181,160,139)" stroke-width="1" opacity="1" d="M 85.5 71 L 89 74.5 L 88.5 75 L 85 71.5 L 85.5 71 Z " /><path fill="rgb(181,160,139)" stroke="rgb(181,160,139)" stroke-width="1" opacity="1" d="M 424.5 73 L 425 73.5 L 420.5 78 L 420 77.5 L 424.5 73 Z " /><path fill="rgb(181,160,139)" stroke="rgb(181,160,139)" stroke-width="1" opacity="1" d="M 53.5 89 Q 55.2 90.2 54 94.5 Q 53.5 95.5 53 94.5 Q 51.7 90.3 53.5 89 Z " /><path fill="rgb(181,160,139)" stroke="rgb(181,160,139)" stroke-width="1" opacity="1" d="M 458.5 94 Q 459.8 94.8 459 97.5 Q 458.5 98.5 458 97.5 Q 457.3 94.8 458.5 94 Z " /><path fill="rgb(181,160,139)" stroke="rgb(181,160,139)" stroke-width="1" opacity="1" d="M 402.5 95 L 403 95.5 L 395.5 103 L 395 102.5 L 402.5 95 Z " /><path fill="rgb(181,160,139)" stroke="rgb(181,160,139)" stroke-width="1" opacity="1" d="M 114.5 100 L 121 106.5 L 120.5 107 L 114 100.5 L 114.5 100 Z " /><path fill="rgb(181,160,139)" stroke="rgb(181,160,139)" stroke-width="1" opacity="1" d="M 392.5 105 Q 394.5 106.5 390.5 108 L 390 107.5 L 392.5 105 Z " /><path fill="rgb(181,160,139)" stroke="rgb(181,160,139)" stroke-width="1" opacity="1" d="M 54.5 106 Q 55.5 106.5 55 108.5 Q 54.5 109.5 54 108.5 Q 53.5 106.5 54.5 106 Z " /><path fill="rgb(181,160,139)" stroke="rgb(181,160,139)" stroke-width="1" opacity="1" d="M 424.5 135 Q 426 136 423.5 137 Q 422 136 424.5 135 Z " /><path fill="rgb(181,160,139)" stroke="rgb(181,160,139)" stroke-width="1" opacity="1" d="M 438.5 136 Q 441 137 439.5 138 Q 437 137 438.5 136 Z " /><path fill="rgb(181,160,139)" stroke="rgb(181,160,139)" stroke-width="1" opacity="1" d="M 444.5 141 Q 447 142 445.5 143 Q 443 142 444.5 141 Z " /><path fill="rgb(181,160,139)" stroke="rgb(181,160,139)" stroke-width="1" opacity="1" d="M 66.5 142 Q 68.5 143.5 64.5 145 L 64 144.5 L 66.5 142 Z " /><path fill="rgb(181,160,139)" stroke="rgb(181,160,139)" stroke-width="1" opacity="1" d="M 297.5 353 Q 299 354 296.5 355 Q 295 354 297.5 353 Z " /><path fill="rgb(181,160,139)" stroke="rgb(181,160,139)" stroke-width="1" opacity="1" d="M 292.5 358 Q 294 359 291.5 360 Q 290 359 292.5 358 Z " /><path fill="rgb(181,160,139)" stroke="rgb(181,160,139)" stroke-width="1" opacity="1" d="M 245.5 371 Q 248 372 246.5 373 Q 244 372 245.5 371 Z " /><path fill="rgb(181,160,139)" stroke="rgb(181,160,139)" stroke-width="1" opacity="1" d="M 199.5 392 L 209.5 392 L 210 392.5 L 209.5 393 L 199.5 393 Q 198.5 392.5 199.5 392 Z " /><path fill="rgb(181,160,139)" stroke="rgb(181,160,139)" stroke-width="1" opacity="1" d="M 305.5 392 L 313.5 392 L 314 392.5 L 313.5 393 L 305.5 393 Q 304.5 392.5 305.5 392 Z " /><path fill="rgb(181,160,139)" stroke="rgb(181,160,139)" stroke-width="1" opacity="1" d="M 165.5 395 Q 166.5 395.5 166 397.5 Q 165.5 398.5 165 397.5 Q 164.5 395.5 165.5 395 Z " /><path fill="rgb(181,160,139)" stroke="rgb(181,160,139)" stroke-width="1" opacity="1" d="M 49.5 402 Q 52 403 50.5 404 Q 48 403 49.5 402 Z " /><path fill="rgb(181,160,139)" stroke="rgb(181,160,139)" stroke-width="1" opacity="1" d="M 462.5 402 Q 464 403 461.5 404 Q 460 403 462.5 402 Z " /><path fill="rgb(181,160,139)" stroke="rgb(181,160,139)" stroke-width="1" opacity="1" d="M 54.5 408 L 57 410.5 L 56.5 411 Q 52.5 409.5 54.5 408 Z " /><path fill="rgb(181,160,139)" stroke="rgb(181,160,139)" stroke-width="1" opacity="1" d="M 457.5 408 Q 459.5 409.5 455.5 411 Q 453.5 409.5 457.5 408 Z " /><path fill="rgb(181,160,139)" stroke="rgb(181,160,139)" stroke-width="1" opacity="1" d="M 72.5 426 Q 76.5 427.5 74.5 429 Q 70.5 427.5 72.5 426 Z " /><path fill="rgb(181,160,139)" stroke="rgb(181,160,139)" stroke-width="1" opacity="1" d="M 439.5 426 Q 441.5 427.5 437.5 429 Q 435.5 427.5 439.5 426 Z " /><path fill="rgb(181,160,139)" stroke="rgb(181,160,139)" stroke-width="1" opacity="1" d="M 191.5 431 Q 194 432 192.5 433 Q 190 432 191.5 431 Z " /><path fill="rgb(181,160,139)" stroke="rgb(181,160,139)" stroke-width="1" opacity="1" d="M 320.5 431 Q 322 432 319.5 433 Q 318 432 320.5 431 Z " /><path fill="rgb(181,160,139)" stroke="rgb(181,160,139)" stroke-width="1" opacity="1" d="M 200.5 440 Q 203 441 201.5 442 Q 199 441 200.5 440 Z " /><path fill="rgb(181,160,139)" stroke="rgb(181,160,139)" stroke-width="1" opacity="1" d="M 311.5 440 Q 313 441 310.5 442 Q 309 441 311.5 440 Z " /><path fill="rgb(181,160,139)" stroke="rgb(181,160,139)" stroke-width="1" opacity="1" d="M 243.5 491 L 252.5 491 L 253 491.5 L 252.5 492 L 243.5 492 Q 242.5 491.5 243.5 491 Z " /><path fill="rgb(181,160,139)" stroke="rgb(181,160,139)" stroke-width="1" opacity="1" d="M 259.5 491 L 268.5 491 L 269 491.5 L 268.5 492 L 259.5 492 Q 258.5 491.5 259.5 491 Z " /><path fill="rgb(231,206,182)" stroke="rgb(231,206,182)" stroke-width="1" opacity="1" d="M 54.5 66 Q 56 67 53.5 68 Q 52 67 54.5 66 Z " /><path fill="rgb(231,206,182)" stroke="rgb(231,206,182)" stroke-width="1" opacity="1" d="M 90.5 76 L 96 81.5 L 95.5 82 L 90 76.5 L 90.5 76 Z " /><path fill="rgb(231,206,182)" stroke="rgb(231,206,182)" stroke-width="1" opacity="1" d="M 418.5 79 L 419 79.5 L 405.5 93 L 405 92.5 L 418.5 79 Z " /><path fill="rgb(231,206,182)" stroke="rgb(231,206,182)" stroke-width="1" opacity="1" d="M 53.5 86 Q 54.5 86.5 54 88.5 Q 53.5 89.5 53 88.5 Q 52.5 86.5 53.5 86 Z " /><path fill="rgb(231,206,182)" stroke="rgb(231,206,182)" stroke-width="1" opacity="1" d="M 458.5 90 Q 459.5 90.5 459 92.5 Q 458.5 93.5 458 92.5 Q 457.5 90.5 458.5 90 Z " /><path fill="rgb(231,206,182)" stroke="rgb(231,206,182)" stroke-width="1" opacity="1" d="M 105.5 91 L 112 97.5 L 111.5 98 L 105 91.5 L 105.5 91 Z " /><path fill="rgb(231,206,182)" stroke="rgb(231,206,182)" stroke-width="1" opacity="1" d="M 121.5 107 Q 124 108 122.5 109 Q 120 108 121.5 107 Z " /><path fill="rgb(231,206,182)" stroke="rgb(231,206,182)" stroke-width="1" opacity="1" d="M 442.5 139 Q 445 140 443.5 141 Q 441 140 442.5 139 Z " /><path fill="rgb(231,206,182)" stroke="rgb(231,206,182)" stroke-width="1" opacity="1" d="M 310.5 207 Q 313 208 311.5 209 Q 309 208 310.5 207 Z " /><path fill="rgb(231,206,182)" stroke="rgb(231,206,182)" stroke-width="1" opacity="1" d="M 48.5 333 L 49 333.5 L 40.5 342 L 40 341.5 L 48.5 333 Z " /><path fill="rgb(231,206,182)" stroke="rgb(231,206,182)" stroke-width="1" opacity="1" d="M 463.5 333 L 471 340.5 L 470.5 341 L 463 333.5 L 463.5 333 Z " /><path fill="rgb(231,206,182)" stroke="rgb(231,206,182)" stroke-width="1" opacity="1" d="M 216.5 354 L 221 358.5 L 220.5 359 L 216 354.5 L 216.5 354 Z " /><path fill="rgb(231,206,182)" stroke="rgb(231,206,182)" stroke-width="1" opacity="1" d="M 269.5 375 Q 272 376 270.5 377 Q 268 376 269.5 375 Z " /><path fill="rgb(231,206,182)" stroke="rgb(231,206,182)" stroke-width="1" opacity="1" d="M 240.5 378 Q 242 379 239.5 380 Q 238 379 240.5 378 Z " /><path fill="rgb(231,206,182)" stroke="rgb(231,206,182)" stroke-width="1" opacity="1" d="M 169.5 388 Q 171.5 389.5 167.5 391 Q 165.5 389.5 169.5 388 Z " /><path fill="rgb(231,206,182)" stroke="rgb(231,206,182)" stroke-width="1" opacity="1" d="M 41.5 391 L 44 393.5 L 43.5 394 Q 39.5 392.5 41.5 391 Z " /><path fill="rgb(231,206,182)" stroke="rgb(231,206,182)" stroke-width="1" opacity="1" d="M 467.5 392 Q 469 393 466.5 394 Q 465 393 467.5 392 Z " /><path fill="rgb(231,206,182)" stroke="rgb(231,206,182)" stroke-width="1" opacity="1" d="M 462.5 396 Q 464 397 461.5 398 Q 460 397 462.5 396 Z " /><path fill="rgb(231,206,182)" stroke="rgb(231,206,182)" stroke-width="1" opacity="1" d="M 252.5 459 L 259.5 459 L 260 459.5 L 259.5 460 L 252.5 460 Q 251.5 459.5 252.5 459 Z " /><path fill="rgb(231,206,182)" stroke="rgb(231,206,182)" stroke-width="1" opacity="1" d="M 221.5 462 Q 223.5 461.5 224 462.5 Q 223.5 463.5 221.5 463 Q 220.5 462.5 221.5 462 Z " /><path fill="rgb(231,206,182)" stroke="rgb(231,206,182)" stroke-width="1" opacity="1" d="M 286.5 462 Q 288.5 461.5 289 462.5 Q 288.5 463.5 286.5 463 Q 285.5 462.5 286.5 462 Z " /><path fill="rgb(231,206,182)" stroke="rgb(231,206,182)" stroke-width="1" opacity="1" d="M 237.5 463 Q 241.7 461.7 243 463.5 Q 241.7 465.2 237.5 464 Q 236.5 463.5 237.5 463 Z " /><path fill="rgb(231,206,182)" stroke="rgb(231,206,182)" stroke-width="1" opacity="1" d="M 267.5 463 Q 271.8 461.7 273 463.5 Q 271.8 465.2 267.5 464 Q 266.5 463.5 267.5 463 Z " /></svg>